<?xml version="1.0" encoding="UTF-8"?>
<svg width="1200pt" height="1200pt" version="1.1" viewBox="0 0 1200 1200" xmlns="http://www.w3.org/2000/svg">
 <g>
  <path d="m444.91 406.63c3.8867-1.4648 9.168-2.543 15.73-3.5625 3.2656-0.50391 1.5352 1.5352 2.0625 4.8125 0.50391 3.2656 3.0352 6.4805-0.17969 6.9961-0.9375 0.17969-1.8125 0.3125-2.6406 0.44531 22.043 3.7188 71.352 7.3906 140.15 7.4023 68.746 0.023438 118.08-3.6719 140.14-7.3672-0.070313-0.011719-0.16797-0.035156-0.26562-0.058594-3.2383-0.57422-5.4102-3.6719-4.8477-6.9375 0.55078-3.2383 3.6836-5.4375 6.9102-4.8594 13.32 2.3281 21.035 5.0156 21.086 11.809 0 6.4688-3.7305 11.34-51.457 15.422-29.809 2.543-69.445 3.9609-111.55 3.9609-42.109 0-81.719-1.4297-111.53-3.9609-47.762-4.0664-51.457-8.9531-51.457-15.422-0.019532-4.1094 2.707-6.6992 7.8516-8.6797z"/>
  <path d="m440.94 409.71c0.64844-0.25391 1.3672-0.38281 2.0898-0.38281 3.3125-0.011719 6 2.6875 6 6l-0.023438 522.25c-0.011718 5.8906 8.5078 18.84 31.98 30.277 20.004 9.7422 56.891 21.359 119.05 21.359 113.86 0 151.03-38.387 151.03-51.648l-0.011718-6.5625 0.011718-515.68c0.046876-3.3242 2.7109-6 5.9883-6 3.3359 0 6 2.6758 6 6l-0.046875 522.24c0 20.746-39.852 63.613-162.97 63.613-64.453 0-103.16-12.277-124.29-22.559-28.547-13.934-38.699-30.324-38.711-41.062l0.011719-522.24c0.019531-2.5898 1.6055-4.7617 3.8867-5.6133z"/>
  <path d="m439.71 927.84c2.9297-1.1172 6.2148 0.25391 7.5234 3.0859 1.3438 2.8672 0.20312 6.2773-2.6055 7.7773l-20.578 11.074c-4.5469 3.9375-5.3398 7.2461-5.3398 9.7578-0.011719 8.7617 16.105 23.207 52.141 35.797 37.738 13.152 85.152 20.41 133.5 20.41 109.15 0 185.71-36.504 185.71-56.184 0-5.0742-5.4492-9.8516-10.02-12.938-1.7656-1.1992-3.5273-2.3047-5.375-3.3828l-1.9922-0.91016c-0.45703-0.21484-0.83984-0.48047-1.1992-0.76953-3.7578-1.8594-7.9062-3.5742-12.949-5.375-3.1328-1.0547-4.7539-4.5234-3.6602-7.5977 1.1055-3.1328 4.5117-4.7656 7.6328-3.6719 7.0781 2.4727 12.648 4.9062 17.746 7.7539l62.965 29.832c10.523 4.9805 16.633 12.574 17.242 21.336 0.63672 8.7969-4.332 17.172-14.062 23.578l-197.28 122.34c-17.891 11.844-47.27 13.691-66.742 4.1289l-226.45-117.82c-10.379-5.1133-16.262-12.66-16.414-21.121-0.13281-8.4492 5.4492-16.176 15.758-21.719l62.062-33.383c6.3008-5.1484 14.605-8.9531 22.32-11.988 0.019531-0.003907 0.03125-0.003907 0.066406-0.015625zm308.53 76.43c-37.285 14.074-89.785 23.461-143.88 23.438-49.668 0-98.484-7.4883-137.48-21.086-38.207-13.379-60.156-30.504-60.156-47.09 0.035157-0.16797 0.023438-0.28906 0.023438-0.44531l-45.828 24.66c-6.0859 3.2539-9.5273 7.2852-9.4805 10.992 0.058594 3.707 3.6367 7.5859 9.8516 10.668l226.48 117.79c15.336 7.5586 40.535 5.9883 54.887-3.5156l197.29-122.29c5.6992-3.7812 8.8789-8.4375 8.6055-12.66-0.3125-4.2461-4.1172-8.3633-10.488-11.398l-36.324-17.207c0.20312 1.1172 0.3125 2.2578 0.3125 3.4219-0.003906 16.363-21.051 32.359-53.812 44.723z"/>
  <path d="m400.11 63.324c5.5898-2.1016 11.316-3.3242 15.707-3.3242l368.5 0.011719c12.539 0 36.551 9.4688 36.574 24.324-0.023437 1.5859-0.63672 3.1445-1.7383 4.2227-1.1172 1.1406-2.6523 1.7539-4.2344 1.7891l-429.71-0.035156c-1.5859 0-3.0977-0.61328-4.2109-1.7539-1.1289-1.1172-1.7539-2.6523-1.7539-4.2227 0.011719-11.879 14.582-18.648 20.871-21.012zm403.52 15.047c-5.293-3.3945-13.441-6.3711-19.32-6.3711l-368.5-0.035156c-5.1367-0.011719-14.594 3.3594-19.223 6.3711z"/>
  <path d="m458.3 80.328c0.66016-0.23828 1.3672-0.37109 2.1133-0.37109 3.3242 0 6 2.6758 6 5.9766l-0.058594 516.73c0 0.035157 0.79297 19.957 17.039 60.059 8.2695 4.1289 47.016 21.238 122.21 21.227 71.449 0.011719 103.52-17.555 109.36-21.168 18.672-33.086 18.742-60.215 18.758-60.504l0.011719-516.31c0-3.2891 2.6992-5.9531 6-5.9531 3.2891 0 5.9531 2.6523 5.9648 5.9531l-0.011718 516.3c0 1.1758 0.011718 31.105-21.047 67.738-0.42188 0.71875-0.98438 1.3555-1.6914 1.8594-1.3789 0.96094-34.285 24.035-117.35 24.035-88.777 0.023437-128.32-22.789-129.96-23.762-1.1172-0.66016-2.0039-1.6797-2.4961-2.8555-18.035-43.848-18.719-65.594-18.742-66.492l0.023437-516.84c0.007813-2.5625 1.625-4.7578 3.8828-5.6211z"/>
  <path d="m477.53 661.39c1.1406-0.44531 2.4492-0.51562 3.7188-0.17969 3.1797 0.88672 5.0508 4.1992 4.1406 7.3672l-19.129 68.93c11.113 5.7617 50.148 21.898 137.7 21.898 86.82 0.023438 120.66-15.816 129.95-21.504l-19.246-69.324c-0.89844-3.1797 1.0312-6.5742 4.1758-7.3438 3.168-0.875 6.4688 0.98438 7.3438 4.1758l20.363 73.367c0.60156 2.1719-0.035157 4.4531-1.668 5.9766-1.1641 1.0664-29.797 26.629-140.93 26.629-110.75 0-146.73-25.078-148.2-26.172-2.0508-1.4531-2.9531-4.0547-2.2695-6.4453l20.398-73.379c0.53125-1.918 1.9492-3.3594 3.6523-3.9961z"/>
 </g>
</svg>
