<?xml version="1.0" encoding="UTF-8"?>
<svg width="1200pt" height="1200pt" version="1.1" viewBox="0 0 1200 1200" xmlns="http://www.w3.org/2000/svg">
 <g>
  <path d="m968.16 965.76h-34.801v-65.762h15.602c3.1211 0.003906 6.0781-1.4102 8.0391-3.8398 2.0977-2.1797 3.1875-5.1406 3-8.1602l-26.039-156v-636c0-5.9648-4.8359-10.801-10.801-10.801h-645.72c-5.9648 0-10.801 4.8359-10.801 10.801v869.76h-34.801c-5.9648 0-10.801 4.832-10.801 10.797v115.44c0 5.9648 4.8359 10.801 10.801 10.801h736.32c5.9648 0 10.801-4.8359 10.801-10.801v-115.44c0-5.9648-4.8359-10.797-10.801-10.797zm-10.801 114.96-714.72-0.003906v-93.359h714.72zm-669.36-973.44h28.32v236.28c-0.011718 2.1367 0.61328 4.2266 1.8008 6l121.56 182.4v0.003907c2.0234 2.9883 5.3906 4.7852 9 4.8008h120v28.199h-188.52c-3.8594-0.003907-7.4297 2.0547-9.3594 5.3984-1.8594 3.3594-1.8594 7.4414 0 10.801l25.199 43.441c-27.602 68.762-62.398 191.28-27.961 313.68 0.11328 0.87109 0.35547 1.7188 0.72266 2.5195 2.3984 8.3984 5.1602 16.68 8.1602 24.961h-88.922zm573.6 0v18.359h-523.44v-18.359zm-271.68 429.48h20.16v27.961l-20.16-0.003906zm-135.24-21.602-116.52-174.84v-193.08h523.68v193.08l-116.52 174.84h-290.64zm-37.801 103.32-18.238-31.922h360.71l5.8789 13.441h-3.7188c-13.031 0-25.074 6.9531-31.594 18.238-6.5156 11.289-6.5156 25.195 0 36.48 6.5195 11.289 18.562 18.242 31.594 18.242h30.48c1.0781 3.7188 2.1602 7.5586 3.3594 12h-397.8c5.6719-19.09 12.32-37.875 19.922-56.281 1.3281-3.3203 1.1094-7.0586-0.60156-10.199zm423.12 210.48c-1.0117-41.602-6.5664-82.965-16.559-123.36-2.7617-12-5.7617-22.441-8.8789-32.762h24l26.637 155.16zm-448.32-123.72c1.0352 0.125 2.0859 0.125 3.1211 0h406.08c10.352 40.418 16.031 81.891 16.922 123.6l-37.801 1.1992c-13.012 0-25.035 6.9414-31.539 18.211-6.5078 11.27-6.5078 25.152 0 36.422 6.5039 11.266 18.527 18.207 31.539 18.207h31.922c-1.3203 7.6797-3 15.359-4.8008 22.922h-420.72c-16.945-72.781-15.125-148.68 5.2812-220.56zm409.8 241.68c-2.0391 6.3594-4.1992 12-6.6016 18.84h-396c-2.5195-6.2383-4.5586-12-6.7188-18.84zm16.32 18.84c3.1211-8.3984 5.7617-16.801 8.1602-25.32 0.054687-0.23828 0.054687-0.48438 0-0.72266 3.3906-12.402 6.1172-24.98 8.1602-37.68l77.879-1.3203v65.039zm-37.441-84c-4.3984 0.84375-8.9453-0.30078-12.414-3.1328-3.4688-2.832-5.5078-7.0547-5.5625-11.535-0.054687-4.4766 1.8828-8.75 5.2812-11.664 3.4023-2.9141 7.918-4.168 12.336-3.4297l97.68-1.9219c3.125 0.003906 6.0781-1.4062 8.0391-3.8398 2.0156-2.3945 2.8906-5.5469 2.4023-8.6367l-29.281-177.6c-0.83203-5.2344-5.3789-9.0664-10.68-9h-86.641c-4.4062 0.79688-8.9414-0.40625-12.379-3.2773-3.4375-2.875-5.4258-7.1211-5.4258-11.602 0-4.4805 1.9883-8.7305 5.4258-11.602 3.4375-2.875 7.9727-4.0742 12.379-3.2812h132l42.48 257.4zm131.64-774.48v498.36c-1.8359-3.5391-5.4922-5.7617-9.4805-5.7617h-113.64c-7.4414-17.641-12.719-28.078-13.199-29.039-1.8242-3.625-5.543-5.9023-9.6016-5.8789h-134.4v-28.199h120c3.6094-0.015625 6.9766-1.8125 9-4.8008l121.56-182.4v-0.003906c1.1875-1.7734 1.8164-3.8633 1.8008-6v-236.28z"/>
  <path d="m817.32 343.8v-151.2c0-5.9648-4.8359-10.801-10.801-10.801h-413.04c-5.9648 0-10.801 4.8359-10.801 10.801v151.2c0 5.9648 4.8359 10.801 10.801 10.801h413.04c2.8633 0 5.6133-1.1406 7.6367-3.1641 2.0273-2.0273 3.1641-4.7734 3.1641-7.6367zm-21.602-10.801h-391.44v-129h391.44z"/>
  <path d="m505.08 317.04h189.84c5.9609 0 10.797-4.8359 10.797-10.801v-76.199c0-5.9648-4.8359-10.801-10.797-10.801h-189.84c-5.9609 0-10.797 4.8359-10.797 10.801v76.199c0 5.9648 4.8359 10.801 10.797 10.801zm10.801-76.199h168.12v54.602h-168z"/>
 </g>
</svg>
