<?xml version="1.0" encoding="UTF-8"?>
<svg width="1200pt" height="1200pt" version="1.1" viewBox="0 0 1200 1200" xmlns="http://www.w3.org/2000/svg">
 <g>
  <path d="m660.17 390.47c-1.2852 2.4102-4.1758 3.6836-6.9258 2.8672-3.1328-0.89844-4.9453-4.1875-4.0312-7.3555 1.7891-6.1211-0.070313-8.3398-0.71875-9.1094-4.1055-4.8477-16.402-5.3867-23.195-4.5977-152.34 0.97266-226.74-39.66-229.85-41.398-0.88672-0.50391-1.6445-1.2344-2.1719-2.1133l-133.46-222.54c-1.6797-2.7852-0.78125-6.4336 2.0391-8.1484 2.7969-1.6797 6.4688-0.75781 8.1484 2.0508l132.6 221.11c10.668 5.375 84.602 40.043 221.98 39.203 1.7539-0.25391 23.449-2.5312 32.988 8.7461 3.0352 3.5742 6.0234 9.9609 3.0352 20.125-0.097656 0.41016-0.27734 0.75781-0.43359 1.1562z"/>
  <path d="m933.2 103c-2.1719 4.0781-7.2852 13.645-113.51 21.719 0.26563 1.5 0.98438 4.5234 3.1562 9.9961 2.543 6.5156 2.6172 12.121 0.16797 16.727-5.8203 10.922-22.992 11.594-41.137 12.277l-5.4961 0.23828c-23.988 1.1055-42.695-6.1211-57.109-22.043-6.9492-7.7031-22.453-10.512-34.68-10.598-28.402 0.78125-57.949 1.2461-87.828 1.4414-153.8 0.96094-318.25-6.7539-335.03-23.324-2.2695-2.2695-2.7461-4.6328-2.7734-6.2148 0-1.3555 0.34766-2.7109 1.0195-3.9961 11.387-21.312 186.95-38.258 336.3-39.191 137.98-0.80859 337.72 12.574 337.9 39.031 0.035156 1.3711-0.3125 2.6875-0.98438 3.9375zm-109.45 9.4805c65.219-5.1367 87.805-10.715 95.496-13.609-24.684-10.945-153.42-27.984-322.89-26.914-169.85 1.0195-298.56 19.727-322.62 30.961 23.09 8.7969 138.76 19.117 322.92 17.977 28.871-0.16797 57.395-0.64844 84.828-1.3906 0.16797-0.035156 0.37109-0.035156 0.5625-0.035156l4.8594-0.10938c0.53906-0.011719 1.0547 0.046875 1.5586 0.15625 10.656 0.50391 29.316 3.0859 39.602 14.398 12.098 13.344 27.254 19.117 47.762 18.18l5.5938-0.23828c12.012-0.48047 28.488-1.1055 31.105-6 0.91016-1.7031 0.10938-4.6094-0.74219-6.7812-4.3086-10.934-5.1016-16.871-2.7852-21.168 2.7344-5.1484 8.2422-5.2422 11.855-5.2812 0.79297-0.035156 1.6562-0.046875 2.5195-0.14453h0.37891z"/>
  <path d="m728.61 475.23c-1.2852 2.4375-4.1641 3.6953-6.8867 2.8789-3.168-0.89844-4.9805-4.1875-4.0664-7.3555l95.449-328c0.83984-3.1094 4.1875-4.957 7.3672-4.0547 3.1328 0.94922 4.957 4.2227 4.0078 7.3789l-95.398 328c-0.13672 0.41016-0.28125 0.78125-0.47266 1.1523z"/>
  <path d="m759.73 551.77c-9.2266 17.281-27.359 29.102-48.289 29.23-25.738 0.13281-48.492-17.965-54.145-43.055-0.69531-3.168 1.3086-6.3711 4.5-7.0664 3.1914-0.69531 6.3828 1.2852 7.0781 4.5 4.4531 19.656 22.32 33.852 42.504 33.73 23.832-0.15625 43.105-19.691 42.961-43.523-0.070313-11.543-4.6445-22.367-12.852-30.492-8.207-8.1016-19.094-12.539-30.637-12.504-20.258 0.15625-37.512 14.004-41.902 33.719-0.74219 3.168-3.8984 5.1719-7.1172 4.4766-3.2031-0.71875-5.2188-3.9258-4.4766-7.0938 5.6289-25.129 27.602-42.793 53.398-42.949 14.723-0.085938 28.633 5.543 39.098 15.887 10.465 10.355 16.285 24.145 16.391 38.902 0.03125 9.4727-2.3203 18.426-6.5117 26.238z"/>
  <path d="m440.75 491.75c-0.99609 1.8711-2.9648 3.1211-5.2188 3.1445-3.2656 0.023437-5.9648-2.6172-5.9883-5.9023-0.25391-37.5-9.7422-65.711-28.262-84l-1.0938-1.0781c-9.5625-9.4336-27.383-27.023-27.551-50.23-0.14453-24.109 16.969-38.879 17.699-39.492 2.4961-2.125 6.2539-1.7773 8.3516 0.68359 2.125 2.5195 1.8359 6.2266-0.67188 8.375-0.14453 0.13281-13.621 11.93-13.488 30.371 0.12109 18.277 15.672 33.625 24.012 41.867l1.1055 1.0664c20.832 20.543 31.512 51.637 31.766 92.398 0.027344 1.0117-0.21484 1.957-0.66016 2.7969z"/>
  <path d="m653.18 706.15c-1.0547 1.9805-2.3398 3.7812-3.8047 5.3398-7.4766 7.9688-17.137 7.5117-18.227 7.4297-169.3 1.043-219.5-26.184-225.29-29.711-15.059-6.5898-24.863-17.113-28.391-30.469-4.5234-17.258 1.8359-38.34 17.93-59.387 25.246-33.238 34.355-80.641 34.453-81.07 0.625-3.2891 3.6836-5.375 6.9375-4.7656 3.2383 0.61328 5.3516 3.6836 4.7383 6.9258-0.38281 2.0625-9.7578 50.723-36.672 86.125-13.836 18.121-19.453 35.543-15.875 49.164 2.6406 9.9492 10.031 17.629 22.02 22.754 0.33594 0.15625 0.64844 0.32422 0.96094 0.51562 0.42188 0.28906 47.004 29.137 219.6 28.043 0.61328 0.023437 5.6172 0.21484 9.2773-3.793 3.9609-4.3203 5.3281-12.574 3.7695-23.746-1.8945-13.922-5.7734-31.656-9.8281-50.426-6.3359-28.98-13.465-61.848-14.797-87.758-0.17969-3.3008 2.3516-6.0703 5.6172-6.2383 3.2891-0.16797 6.0703 2.3633 6.2383 5.6289 1.3086 24.91 8.3281 57.277 14.531 85.859 4.1641 18.984 8.0625 36.949 10.031 51.324 1.6133 11.777 0.50781 21.258-3.2227 28.254z"/>
  <path d="m630.73 516.37c-1.0195 1.9336-3.0977 3.2031-5.3867 3.1445-3.2891-0.085937-5.8672-2.8555-5.7617-6.0859 0-1.1758 0.80469-28.367 4.8242-42.109l95.41-328c0.875-3.1094 4.2461-4.9688 7.3555-4.0547 3.1562 0.91016 4.9922 4.2227 4.0547 7.3555l-95.41 328.02c-3.6016 12.289-4.3672 38.797-4.3672 39.109-0.046875 0.92578-0.28516 1.8398-0.71875 2.6172z"/>
  <path d="m678.54 533.63c-3.3711 6.3125-10.848 8.9883-16.309 9.1914-7.8945 0.097657-190.15 1.8945-244.51-27.383-1.9219-1.0195-3.0977-3.0352-3.1094-5.1836l-0.15625-24.637c0-0.68359 0.097656-1.3555 0.33594-2.0156 0.15625-0.45703 4.043-11.16 16.621-15.059 3.1211-0.96094 6.457 0.78125 7.4414 3.8984 0.98438 3.1562-0.79297 6.4688-3.9102 7.4531-1.9336 0.61328-3.457 1.4531-4.6797 2.3867 1.5586 0.94922 2.6289 2.5664 2.832 4.4648 1.5977 2.5195 20.641 24.098 201.64 22.98l28.703-0.57422c7.043 0.42188 16.824 5.2578 16.895 16.922 0.011719 2.9219-0.66016 5.4414-1.7891 7.5547zm-252.08-27.098c55.586 26.184 233.64 24.434 235.48 24.395 0.91016-0.046875 6.5898-0.57422 6.5156-4.8125 0-4.0312-3.3359-4.9688-5.3281-5.1484l-28.234 0.64844c-146.05 0.875-194.46-12.551-208.48-24.758z"/>
  <path d="m933.49 101.93c-0.035157 0.035156-0.25391 1.0078-0.28906 1.0664l-133.43 223.27c-0.66016 1.2109-1.7383 2.0898-2.9883 2.5547-12.109 4.5977-30.504 5.7461-31.262 5.8203-3.2891 0.19141-6.0703-2.293-6.2891-5.5781-0.19141-3.2773 2.3047-6.0859 5.5781-6.2891 0.14453 0 15.359-0.94922 25.812-4.3906l132.48-222.27c1.6328-2.8203 5.2695-3.7812 8.125-2.125 2.7578 1.5977 3.7305 5.125 2.2539 7.9336z"/>
  <path d="m780.59 488.63c-4.2969 8.1016-17.641 17.617-21.938 20.543-2.7344 1.8711-6.4453 1.1523-8.2578-1.5352-1.8477-2.7344-1.1523-6.4062 1.5469-8.2578 8.9141-6.0859 17.461-13.836 18.301-16.57 0.25391-0.86328 0.21484-1.2461 0.21484-1.2461-2.832-0.50391-4.2734-2.3398-4.2734-5.2188-0.13281-19.727 21.301-68.051 34.355-86.051 12.324-17.004 19.777-28.871 19.668-50.074-0.12109-19.055-18.035-28.934-18.215-29.004-2.8789-1.5586-3.9844-5.1719-2.4375-8.0391 0-0.011719 0-0.011719 0.035156-0.035156 1.5234-2.8672 5.125-3.9727 8.0039-2.3867 1.0078 0.50391 24.348 13.355 24.516 39.406 0.14453 24.77-8.6289 38.723-21.973 57.145-11.605 16.055-29.652 57.492-31.848 75.59 0.85156 0.68359 1.668 1.5586 2.375 2.6875 1.2461 2.0508 2.4609 5.543 0.98438 10.57-0.21875 0.79688-0.58203 1.625-1.0586 2.4766z"/>
  <path d="m789.65 509.07c-0.058594 0.058593-0.085938 0.13281-0.12109 0.22656-0.35938 0.58984-8.9766 15.047-26.242 25.055-2.8438 1.6328-6.4805 0.66016-8.1367-2.1719-1.6562-2.832-0.70703-6.4805 2.1719-8.125 11.797-6.8516 18.828-16.164 21.133-19.512l-0.10938-11.293c-0.035156-8.7969-2.207-10.715-2.4609-10.906-3.0703 1.1875-6.8281-0.40625-8.0156-3.5039-1.1875-3.0352 0-6.5742 3.0469-7.7773 2.8203-1.0664 7.5352-1.3203 11.629 1.4414 5.0625 3.457 7.6445 10.414 7.7148 20.664l0.070313 13.078c-0.007813 1.0039-0.22266 1.9492-0.67969 2.8242z"/>
  <path d="m829.22 653.29c-1.4297 2.6641-4.6328 3.8281-7.4766 2.6992-3.0234-1.2461-4.4766-4.7148-3.2383-7.7539 4.2969-10.547 3.2148-23.316-16.117-51.301-20.902-30.133-35.062-72.949-35.652-74.746-1.0078-3.1211 0.68359-6.4805 3.7812-7.5 3.1094-1.0312 6.457 0.68359 7.5 3.793 0.15625 0.40625 14.258 42.984 34.129 71.699 19.141 27.719 24.168 45.816 17.328 62.543-0.0625 0.17969-0.14453 0.38672-0.25391 0.56641z"/>
  <path d="m809.65 672.9c-0.13281 0.26562-0.33594 0.5625-0.53906 0.83984-6.3711 8.1953-26.93 17.438-46.777 20.977-8.5664 1.5703-13.957-1.2852-16.98-3.9609-8.2695-7.2969-7.7891-20.52-7.7031-22.02l-0.27734-41.965c0-3.2891 2.6523-5.9648 5.9141-5.9883 3.2773 0 5.9531 2.6406 5.9648 5.9141l0.26562 42.312c-0.097656 2.6406 0.32422 9.8984 3.707 12.84 0.57422 0.51562 2.3281 2.0273 6.9961 1.1992 19.188-3.4688 35.914-11.988 39.492-16.586 2.0391-2.6172 5.7617-3.0977 8.3398-1.0781 2.3398 1.8281 2.9531 5.0078 1.5977 7.5156z"/>
  <path d="m928.09 1030.1c-3.3125 6.2148-7.332 12.324-12.18 18.434-52.859 66.469-187.41 90.781-286.59 91.402-119.62 0.70703-273.18-12.949-325.33-82.129-57.266-76.055-16.656-145.75-16.176-146.5l115.5-230.07c1.6797-2.8672 5.0391-4.1289 7.9805-2.6641 2.9414 1.4648 4.1055 5.0625 2.6406 7.9805l-115.71 230.47c-1.7266 2.8438-37.105 64.066 15.266 133.64 51.77 68.688 220.05 77.965 315.76 77.363 96.516-0.58984 227.11-23.723 277.34-86.914 45.742-57.383 9.9727-123.36-7.1758-155.09-2.4961-4.6211-4.5977-8.5312-6.0586-11.605-10.176-21.742-57.359-113.35-66.707-131.5-1.5234-2.8906-0.40625-6.4922 2.543-7.9922 2.9141-1.5234 6.5156-0.39453 8.0039 2.5547 9.3594 18.18 56.641 109.96 66.926 131.9 1.3672 2.8906 3.3711 6.5898 5.7461 10.98 16.613 30.734 49.371 91.43 18.223 149.73z"/>
  <path d="m727.51 603.74c-0.33594 0.64844-0.80469 1.2461-1.4023 1.7539-14.988 12.625-42.238 5.3516-43.391 5.0156-1.8242-0.48047-3.3125-1.8125-3.9844-3.5742-0.046875 0.085938-3.0703-4.5234-19.453-20.027-22.078-20.965-10.441-50.941-9.9258-52.188 1.1875-2.9883 4.6797-4.5234 7.7148-3.3125 3.0469 1.2227 4.5234 4.6797 3.3242 7.7148-0.39453 0.97266-9.0977 23.844 7.1055 39.168 7.5234 7.1406 16.441 15.938 20.426 21.277 4.6562 1.0195 12.395 2.0156 19.402 1.1055-10.262-5.8438-24.371-16.703-34.223-35.426-1.5117-2.9023-0.42188-6.4805 2.4844-8.0391 2.9023-1.5117 6.5039-0.40625 8.0391 2.5078 14.594 27.695 40.094 35.438 40.32 35.508 2.1133 0.625 3.707 2.3516 4.1406 4.5 0.29688 1.4141 0.070312 2.8164-0.57812 4.0156z"/>
  <path d="m761.09 594.34c-0.16797 0.30078-0.33594 0.55078-0.57422 0.83984-13.129 16.801-32.258 14.699-40.523 11.242-3.0234-1.2344-4.4414-4.7539-3.1914-7.7656 1.2227-3.0352 4.7148-4.4648 7.7266-3.2031 0.71875 0.28906 14.438 5.5938 25.02-5.6992-1.0938-2.2188-5.0391-7.8477-19.598-14.051-3.0352-1.3203-4.4141-4.8125-3.1562-7.8359 1.2227-2.7734 4.7773-4.4023 7.8359-3.0977 27.707 11.867 27.434 25.043 27.098 27.527-0.097656 0.72266-0.30078 1.4062-0.63672 2.043z"/>
  <path d="m827.93 936.11c-0.10938 0.20312-0.23828 0.42188-0.37109 0.61328l-13.668 19.512c-0.99609 1.4414-2.543 2.3516-4.2734 2.5312-1.7266 0.15625-3.457-0.42188-4.6914-1.6562l-17.258-16.5c-52.738-59.785-103.75-188.81-115.25-238.41-11.496-49.586 5.5312-97.391 6.2539-99.383 1.0781-3.0703 4.5117-4.7031 7.6094-3.6016 3.0977 1.1406 4.668 4.5469 3.5625 7.6328-0.15625 0.49219-16.512 46.621-5.8438 92.664 11.734 50.52 63.266 177.34 112.25 232.89l11.867 11.34 7.0195-10.008c-13.5-15.445-65.375-77.844-90.672-148.54-27.18-75.816-48.336-147.19-9.2656-186.41 2.293-2.3398 6.0703-2.3398 8.3984-0.035157 2.3281 2.3281 2.3398 6.0859 0.035156 8.4102-34.234 34.344-13.812 101.95 12.012 174.02 27.77 77.629 90.793 147.42 91.43 148.12 1.7305 1.8789 2.0312 4.5781 0.85547 6.8008z"/>
  <path d="m775.2 609.43c-15.406 28.812-68.844 23.746-71.352 23.496-3.2539-0.33594-5.6289-3.2383-5.3047-6.4922 0.28906-3.2539 3.2539-5.6758 6.5273-5.3281 0.55078 0.070313 56.746 5.3281 61.934-24 2.2695-12.887 1.1172-22.465-3.4336-27.707-4.0781-4.7031-10.477-5.543-15.121-5.3984-3.2891 0.10938-6.0117-2.4609-6.1445-5.7461-0.085938-3.3008 2.5078-6 5.7617-6.0977 10.211-0.32422 18.926 3.0352 24.469 9.4805 7.0664 8.1367 9.1445 20.773 6.1562 37.523-0.66016 3.8242-1.8711 7.207-3.4922 10.27z"/>
  <path d="m771.64 566.71c-1.2852 2.4258-4.1758 3.6953-6.9492 2.8555-3.1445-0.9375-4.9219-4.2617-3.9727-7.3789 5.1953-17.16-3.9609-23.844-4.332-24.109-2.6523-1.8711-3.4922-5.4844-1.5234-8.2422 1.7891-2.6992 5.3867-3.4219 8.1016-1.6445 0.71875 0.44531 16.992 11.484 9.168 37.402-0.15625 0.41016-0.3125 0.74609-0.49219 1.1172z"/>
  <path d="m797 897.42c-1.2852 2.3516-3.9727 3.6484-6.6836 2.9648-3.1914-0.76953-5.125-3.9961-4.3438-7.1875 19.309-79.008 18.312-117.02 17.102-165.1-0.23828-8.4492-0.48047-17.184-0.60156-26.508-0.79297-59.352-36.07-90.238-36.434-90.539-2.4492-2.1367-2.6875-5.9414-0.64844-8.3867 2.1719-2.4961 5.8906-2.7852 8.3984-0.66016 1.6211 1.3906 39.684 34.754 40.559 99.434 0.14453 9.2656 0.35938 17.977 0.58984 26.363 1.2852 48.949 2.2695 87.648-17.41 168.25-0.12109 0.48438-0.32422 0.97656-0.52734 1.3633z"/>
  <path d="m780.1 963.54c-1.1758 2.1719-3.6133 3.4922-6.1562 3.0703-3.2656-0.52734-5.4609-3.5898-4.957-6.8047 0.48047-2.9414 6.9375-32.711 7.668-36.059 0.74219-3.2148 3.8984-5.2578 7.0938-4.5859 3.2148 0.73047 5.2305 3.875 4.5469 7.1055-2.7461 12.637-7.2461 33.457-7.5586 35.41-0.10938 0.6875-0.33984 1.3008-0.63672 1.8633z"/>
  <path d="m815.75 918.67c-1.3203 2.5078-4.332 3.7812-7.1289 2.8086-3.1211-1.0312-4.7539-4.4141-3.707-7.5117 26.387-77.711 22.895-144.09 19.176-214.34l-0.80469-15.973c-3.5625-70.98-51.047-91.68-51.539-91.871-3-1.2852-4.4531-4.7656-3.1914-7.7656 1.2461-2.9883 4.7656-4.4648 7.7773-3.2031 2.2422 0.94922 54.875 23.879 58.801 102.25l0.81641 15.938c3.793 71.438 7.3555 138.93-19.801 218.79-0.085937 0.30859-0.21484 0.60547-0.39844 0.88281z"/>
  <path d="m867.8 924.97c-0.13281 0.21484-0.25391 0.43359-0.39453 0.63672l-35.809 50.566c-1.2852 1.8125-3.4922 2.7617-5.7109 2.4375-10.031-1.3906-26.258-7.4648-26.914-7.7148-1.7031-0.64844-2.9883-1.9922-3.5508-3.7188-0.58984-1.7031-0.42188-3.4219 0.63672-5.0508l7.9688-12.48c1.7539-2.7852 5.4375-3.6016 8.207-1.8008 2.7617 1.7656 3.4922 5.4492 1.8125 8.1953l-3.9492 6.1797c4.1523 1.3555 9.457 3 13.992 3.9961l30.395-42.887-10.066-7.957-17.062 21.625c-2.0391 2.5781-5.7617 3-8.3398 0.96094-2.5781-2.0273-2.9883-5.8438-0.98438-8.3164l20.773-26.293c0.96094-1.2461 2.3867-2.0273 3.9492-2.2305 1.5977-0.15625 3.168 0.26562 4.3789 1.2461l19.117 15.168c2.2695 1.7734 2.8828 4.9297 1.5508 7.4375z"/>
  <path d="m888.85 952.88c-0.30078 0.57422-0.71875 1.1055-1.2109 1.5469l-17.461 16.273c-1.2227 1.1055-2.8438 1.7031-4.5117 1.5586-1.668-0.12109-3.2031-0.9375-4.2461-2.2695-4.6094-5.8789-13.465-14.652-18.672-15.648-3.2383-0.63672-5.3047-3.7422-4.7031-6.9727 0.60156-3.2266 3.7188-5.3398 6.9609-4.7031 8.1016 1.5469 16.559 9.5273 21.613 15.098l9.0859-8.4492c-4.8828-4.9336-14.664-10.488-21.395-13.477-3.0234-1.2852-4.3789-4.8008-3.0586-7.8125 1.4297-3 4.8477-4.3789 7.8477-3.0586 4.0195 1.8008 24.359 11.184 29.855 22.535 0.83203 1.7422 0.76953 3.75-0.10547 5.3789z"/>
  <path d="m806.46 996.64c-1.0195 1.8828-2.9766 3.1211-5.1953 3.1445-2.6992 0.011719-5.0625-1.7656-5.7734-4.3672-1.1758-4.3086-2.4258-5.1602-2.4258-5.1602-2.6289 0.011719-10.391 8.7344-15.492 17.652-0.9375 1.5977-2.5195 2.6875-4.3086 2.9531-1.8125 0.25391-3.6719-0.32422-4.9805-1.6211l-20.172-19.344c-1.8125-1.7266-2.3164-4.3789-1.3203-6.6602 12.504-28.402 44.125-32.16 59.062-30.109 3.2539 0.43359 5.5312 3.4336 5.0742 6.6836-0.12109 0.88672-0.40625 1.6914-0.86328 2.3867 2.7109 1.0781 4.2734 4.043 3.5391 6.9727l-6.6133 26.137c-0.125 0.45703-0.30469 0.91016-0.53125 1.332zm-35.207-1.0312c5.3281-7.7773 14.34-18.254 23.438-17.113 1.4297 0.20312 2.7461 0.60156 3.9727 1.2227l3.3945-13.477c0.15625-0.53906 0.44531-1.1055 0.63672-1.5-6.5625-0.51562-31.488-1.043-43.211 19.57z"/>
  <path d="m813.36 1013.2c-0.38281 0.71875-0.92578 1.3672-1.6328 1.9062l-16.246 12.48c-1.4297 1.0938-3.2891 1.4766-5.0625 1.0195-1.7539-0.40625-3.2031-1.6328-3.9609-3.2539l-12.84-27.672c-1.4023-2.9883-0.085938-6.5156 2.8789-7.8945 2.9766-1.3789 6.5039-0.097656 7.8828 2.8906l9.7422 20.953 6.7422-5.1719-5.125-12.395c-1.2852-3.0352 0.15625-6.5039 3.1914-7.7539 3.0352-1.2734 6.5039 0.16797 7.7539 3.2031l6.9102 16.609c0.70312 1.6719 0.59375 3.5312-0.23438 5.0781z"/>
 </g>
</svg>
