<?xml version="1.0" encoding="UTF-8"?>
<svg width="1200pt" height="1200pt" version="1.1" viewBox="0 0 1200 1200" xmlns="http://www.w3.org/2000/svg">
 <path d="m898.37 166.64-36.719-4.6562-74.988-0.20312 4.7031-72.887c4.6914-1.3555 8.0898-2.832 9.707-4.4531 1.8359-1.8242 2.2305-3.7578 2.2305-5.0391 0.035157-3.3711-2.2422-6-6.7305-7.8008-18.301-7.3789-98.879-11.148-246.3-11.555-253.08-0.72266-253.11 9.6328-253.14 17.949 0 5.2578 5.6641 7.5352 7.5234 8.293 1.9453 0.78125 4.6328 1.5352 7.6562 2.2812l4.4648 75.504-6.6133 8.7617c-0.68359 0.89844-1.043 1.9922-1.043 3.0977l-0.085938 29.617c0 1.6797 0.80469 3.2539 2.1836 4.2344l8.8672 6.2891 13.285 276.59c-0.023438 0.45703-1.1172 44.879 39.059 54.84l10.367 2.8555-0.35547 124.21c-0.011718 1.8125 0.94922 3.4922 2.4961 4.4141 0.57422 0.34766 6.0977 3.6367 15.613 7.4648 8.9297 3.6016 21.457 7.6211 36.59 10.223l-0.035156 21.359c-0.046875 0.51563-1.3555 12.805-12.121 18.395-29.664 15.383-44.762 48.73-44.891 99.121-0.17969 67.559 3.2773 202.93 3.3008 203.88-0.085937 1.6797-1.7148 41.426 42.289 67.285 7.0195 4.1523 14.746 7.8125 22.824 11.074 41.062 16.535 91.344 22.141 108.05 22.199h5.8086c19.848 0.085937 91.402-7.7656 134.03-32.52 44.137-25.633 42.758-65.398 42.672-66.672 0.046875-1.3672 4.2461-136.7 4.4297-204.28 0.21484-73.152-31.262-93.984-44.785-99.551-22.309-9.168-22.066-24.266-22.055-25.129l0.058594-17.258c23.449-5.7344 37.812-14.148 38.746-14.699 1.5586-0.9375 2.5195-2.6172 2.5195-4.4141l0.32422-124.21 10.246-2.7734c40.344-9.8047 39.504-54.215 39.492-54.238l14.773-276.95 7.4648-5.2188 43.117 2.3633 8.2695 198.85c0.046876 0.9375 0.32422 1.8594 0.83984 2.6406 0.67188 0.98438 2.5195 3.1094 7.0664 4.9453 4.2461 1.7148 10.859 3.1797 21.035 3.2031 24.828 0.085937 25.176-15.359 25.176-15.875l7.0781-236.32c0.09375-2.6328-1.8281-4.9375-4.4922-5.25zm-348.12-96.289c159.82 0.43359 218.11 4.9688 237.12 9.2539-23.965 6.1328-108.29 12.973-237.19 12.613-109.82-0.28906-208.38-6.2266-237.14-14.027 16.465-3.543 69.613-8.3086 237.21-7.8398zm-0.09375 32.184c65.977 0.17969 182.87-2.1602 230.72-11.219l-4.6211 71.543c-14.809 3.5391-79.559 16.691-223.09 16.32-143.84-0.40625-210.93-13.992-226.21-17.594l-4.1719-70.871c39.562 6.8789 126.24 11.547 227.38 11.82zm-230.74 75.145 4.6562-6.1562c15.145 3.707 81.422 17.555 229.07 17.977 147.06 0.38281 211.09-12.996 225.98-16.703l4.6094 6.1562-0.085938 25.223-7.668 5.3633c-12.516 1.1406-112.04 9.8516-224.52 9.5508-112.44-0.3125-211.92-9.5508-224.48-10.754l-7.6328-5.4102zm375.34 568.84c11.629 4.7656 38.594 23.102 38.41 89.988-0.19141 67.43-4.3906 202.62-4.4141 204.36 0.058594 1.4297 0.96094 35.316-37.559 57.695-40.789 23.699-109.68 31.211-128.83 31.129h-5.8086c-18.445-0.070312-85.176-8.0391-125.64-31.848-38.41-22.586-37.285-56.438-37.223-58.246-0.035156-1.3672-3.4805-136.6-3.3008-204.01 0.12109-46.246 13.355-76.512 39.336-89.977 15.875-8.2578 17.566-25.906 17.664-27.086l0.046875-20.375c8.4609 0.97266 17.52 1.4883 27.238 1.1523 2.7617-0.097656 4.9688-2.3633 4.9688-5.1484l0.17969-66.602c9.5391 3.3945 28.559 7.2227 66.516 7.332 42.012 0.097657 64.105-4.4883 74.496-7.7148l-0.17969 67.355c-0.011719 2.1719 1.3203 4.0312 3.2266 4.8008 0.53906 0.21484 1.1172 0.33594 1.7148 0.37109 15.145 0.61328 28.836-0.74219 40.789-2.9414l-0.046874 14.762c-0.046876 0.94922-0.98438 22.91 28.418 35.004zm-73.887-130.22c-6.6016 2.4727-27.238 8.375-74.496 8.2695-45.961-0.14453-61.969-5.8438-66.527-8.1016l0.14453-51.277c12.168 1.0312 41.965 3.3008 68.762 3.5625 0.046875 0 0.085938 0.023438 0.12109 0.023438h1.1875c0.67188 0 1.3555 0.023437 2.0273 0.023437 0.070312 0 0.13281-0.035156 0.21484-0.035156 26.785-0.10938 56.543-2.2188 68.699-3.2031zm105.12-77.773-14.184 3.8281c-2.2578 0.60156-3.793 2.6406-3.8164 4.9688l-0.3125 125.07c-8.4375 4.3438-37.391 17.566-76.691 17.137l0.34766-129.55c0.011719-1.4531-0.60156-2.8438-1.668-3.8164-1.0781-0.99609-2.4961-1.4766-3.9492-1.3438-0.42188 0.035157-41.566 3.707-76.246 3.6484-34.199-0.28906-73.738-3.9961-74.148-4.043-1.4531-0.13281-2.8789 0.33594-3.9609 1.3203-1.0781 0.98438-1.6914 2.3516-1.6914 3.8047l-0.33594 129.53c-39.168 0.21484-68.172-13.188-76.586-17.543l0.34766-125.09c0.011719-2.3164-1.4766-4.2852-3.793-4.9922l-14.281-3.9375c-32.062-7.9453-31.414-43.031-31.379-44.941l-13.117-273.57c23.746 2.1836 116.75 10.105 220.89 10.402 104.14 0.26562 197.17-7.1523 220.93-9.2148l-14.629 273.95c0.03125 0.37109 0.71484 36.504-31.734 44.387zm159.5-130.69c-0.22656 2.2305-3.5898 6-14.832 5.9648-11.762-0.035156-16.992-2.1602-18.781-3.1094l-8.3398-201.32c-0.12109-2.6641-2.2422-4.7891-4.8711-4.9336l-44.699-2.4492 0.070312-24.719c0.011719-1.1172-0.33594-2.207-1.0195-3.1094l-1.5352-2.0508 69.527 0.15625 31.402 4.0195z"/>
</svg>
