<?xml version="1.0" encoding="UTF-8"?>
<svg width="1200pt" height="1200pt" version="1.1" viewBox="0 0 1200 1200" xmlns="http://www.w3.org/2000/svg">
 <path d="m544.28 523.96h-6.9766v77.215h34.672v-77.215zm-97.227-27.066v-55.977h-7.7734v55.977zm23.312 0v-55.977h-7.7734v55.977zm23.316 0v-55.977h-7.7695v55.977zm71.32 91.07v6.2383h-20.723v-63.262h20.723v3.0586l-10.457 3.6016v50.344l10.457 0.023437zm0-46.594v39.645l-3.4844-0.007812v-38.438l3.4844-1.1953zm159.09 210.78v-22.723h-65.25v22.719h65.25zm-92.766-44.797c25.117 0 53.895-0.003906 79.008-0.003906v-38.348h-79.008zm20.07-106.51-2.4805-1.8711h-21.848l-3.4453 1.8711zm47.188 35.652-37.953-28.672h-48.094v39.289h86.055zm-99.859-37.52v22.91h-54.441v17.938l-21.336 27.68h-130.7l-21.336-27.68v-136.57h227.81v18.781l53.602-18.379 0.55469-0.19141h82.879l0.57422 0.20703c31.609 11.285 62.539 22.188 94.16 33.625v221.81l-178.62-0.003906v-33.156l14.574-11.613h-42.09v-48.812l12.84-11.434h-31.633v-51.832l6.5547-3.2812h-13.395zm-6.9766-58.133v-30.613h-213.86v127.25l17.766 23.043h123.89l17.766-23.043v-22.574h54.441v-15.938h-17.785v-58.133h17.785zm231.77 0.94531c-29.82-10.367-59.137-20.699-88.953-31.348h-80.531l-55.309 18.965v11.438h64.84l60.961-13.812 1.5273 6.7852-61.383 13.906-0.42188 0.09375h-83.305v44.18h70.301l0.9375 0.70703 91.664 69.25h41.598v6.9766h-43.918l-0.9375-0.70703-35.031-26.465 0.023438 12.332h-58.352l-9.2148 7.9414h79.305v52.48h-40.914l-10.684 7.9453h65.359v29.695l92.445 0.003906v-210.37zm-399.78-44.895v-55.977h-7.7734v55.977zm-88.41-162.25c-68.102 68.102-110.37 162.04-110.37 265.37s42.27 197.27 110.37 265.37c68.102 68.102 162.04 110.37 265.37 110.37 103.33 0 197.27-42.27 265.37-110.37 68.102-68.102 110.37-162.04 110.37-265.37 0-103.33-42.27-197.27-110.37-265.37-68.102-68.098-162.04-110.37-265.37-110.37-103.33 0-197.27 42.273-265.37 110.37zm265.37-103.39c101.41 0 193.59 41.488 260.44 108.33 66.84 66.84 108.32 159.03 108.32 260.44 0 101.41-41.488 193.6-108.32 260.44-66.844 66.84-159.04 108.32-260.44 108.32s-193.6-41.484-260.44-108.32c-66.836-66.84-108.32-159.03-108.32-260.44s41.488-193.6 108.33-260.44c66.84-66.84 159.03-108.33 260.44-108.33" fill-rule="evenodd"/>
</svg>
