<?xml version="1.0" encoding="UTF-8"?>
<svg width="1200pt" height="1200pt" version="1.1" viewBox="0 0 1200 1200" xmlns="http://www.w3.org/2000/svg">
 <g>
  <path d="m570.1 185.04c-38.102 3.9609-82.043 6.2031-127.11 6.5039-85.078 0.53906-246.06-7.4023-246.31-41.352-0.12109-17.09 39.828-29.914 118.7-38.102 38.09-3.9609 82.008-6.2031 127.05-6.5039 64.598-0.43359 125.4 3.1328 171.18 10.02 67.223 10.105 75.07 22.738 75.121 31.367 0.10938 17.066-39.812 29.883-118.64 38.066zm-253.64-62.723c-89.449 9.2891-109.5 23.52-109.48 27.793 0.085938 11.387 81.191 32.113 235.95 31.129 44.723-0.30078 88.32-2.5195 126.1-6.4453 89.387-9.2773 109.43-23.508 109.41-27.77-0.023438-3.1328-11.988-13.066-66.348-21.254-45.289-6.8047-105.5-10.332-169.59-9.9102-44.699 0.32422-88.285 2.543-126.05 6.457z"/>
  <path d="m737.2 151.77c-1.6562 0.17969-3.2773-0.45703-4.3906-1.7031-20.484-23.125-10.992-51.012-10.57-52.188 0.64844-1.8477 2.3047-3.1797 4.2617-3.4062l294.39-34.441c0.38281-0.058594 1.043-0.035156 1.5586 0.058594 0.73047 0.13281 17.328 3.6016 18.277 27.324 0.94922 23.484-15.875 29.496-16.609 29.734-0.33594 0.12109-0.69531 0.19141-1.0547 0.23828l-285.79 34.379c-0.027343 0.003906-0.050781 0.003906-0.074219 0.003906zm-6.0586-47.461c-1.5 6.5508-3.5156 22.609 7.6914 36.898l282.34-33.961c1.8477-0.85156 9.8398-5.375 9.2773-19.402-0.52734-13.211-7.1289-16.656-9.3594-17.449z"/>
  <path d="m361.77 582.91c-1.0078 0.10938-2.0898-0.085937-3.0469-0.63672-34.32-19.309-66.898-91.645-90.695-144.47-24.457-54.238-28.379-96.422-29.676-110.27-0.53906-5.8555-3.0977-16.691-6.0352-29.219-4.4766-19.066-9.5625-40.68-10.488-56.461-1.4141-24.852-24.602-89.316-24.828-89.965-0.96094-2.6758 0.42188-5.6289 3.0977-6.5898 2.6641-0.98438 5.6172 0.40625 6.5898 3.0859 0.97266 2.7109 23.914 66.539 25.414 92.867 0.86328 14.879 6.0586 36.961 10.246 54.695 3.0234 12.898 5.6523 24.047 6.2656 30.625 1.2344 13.441 5.0508 54.324 28.801 107 21.742 48.266 54.539 121.05 85.727 139.34 0.21484 0.12109 4.9336 2.9297 9.0586 4.2109 2.7227 0.83984-5.0625 0.69531-6.4688 3.1797-0.84375 1.5078-2.3555 2.4297-3.9609 2.5977z"/>
  <path d="m494.63 585.64c-1.4531 0.15625-3.0859 2.0508-4.2109 0.96094-2.0625-1.9688-2.125-5.2305-0.16797-7.2734 36.406-37.934 91.668-101 94.766-119.35 4.6797-27.816 13.812-47.449 19.273-59.172 2.2578-4.8359 6.3828-15.227 10.754-26.219 7.1055-17.855 15.168-38.09 20.062-47.23 4.1875-7.7539 8.8086-43.598 12.551-72.406 2.8672-22.262 5.5781-43.285 8.1133-52.715 3.0352-11.473 8.8555-23.293 13.98-33.73 4.2734-8.7109 8.7227-17.711 8.6992-21.469-0.023438-1.9805 1.1055-3.793 2.8672-4.6562l41.34-20.195c2.5781-1.2461 5.6406-0.17969 6.8867 2.3633 1.2461 2.5547 0.17969 5.6406-2.3633 6.8867l-38.797 18.949c-1.1289 5.8555-4.8477 13.465-9.3945 22.656-4.9062 10.008-10.477 21.348-13.273 31.836-2.3047 8.7734-5.0039 29.473-7.8477 51.383-5.1953 40.199-8.9648 67.199-13.68 75.973-4.6211 8.6172-12.898 29.438-19.547 46.164-4.6445 11.617-8.6406 21.648-11.016 26.762-5.2305 11.258-14.004 30.086-18.445 56.531-4.6211 27.359-87.996 114.89-97.5 124.78-0.87891 0.90234-1.8867-0.94531-3.0508-0.82422z"/>
  <path d="m599.7 569.14c-1.6211 0.16797-3.3008-0.44531-4.4531-1.7656-1.8477-2.1602-1.6094-5.4102 0.53906-7.2617 34.488-29.617 75.168-262.54 93.648-393.27-49.211 35.125-185.66 53.473-256.22 53.93-77.23 0.50391-203.75-12.023-205.01-12.156-28.152-0.78125-59.941 29.855-60.254 30.168-1.5 1.4531-3.7695 1.8594-5.6523 1.0078-1.9336-0.85156-3.1445-2.7734-3.0703-4.8711 1.5352-48.898 46.5-66.551 48.406-67.273 2.7109-1.0195 5.6172 0.32422 6.6367 2.9766 1.0078 2.6523-0.32422 5.6289-2.9766 6.6484-1.4766 0.5625-32.438 12.863-40.105 45.191 12.793-10.02 35.508-24.742 57.672-24.121 1.6445 0.15625 127.61 12.625 204.29 12.121 85.332-0.53906 228.84-24.227 259.39-60.07 1.4883-1.7383 3.9492-2.293 6.0234-1.3555 2.0898 0.9375 3.3008 3.1328 3 5.3867-2.0742 15.203-51.48 372.6-99.035 413.5-0.84766 0.71094-1.8438 1.1055-2.8281 1.2148z"/>
  <path d="m295.32 571.13c-1.8945 0.19141-3.8281-0.68359-4.9062-2.4102-55.934-90.18-75.875-204.9-86.578-266.52-2.4961-14.387-4.4766-25.738-6.2031-32.449-7.8477-30.539-31.934-29.566-32.953-29.508-2.8203 0.15625-5.2578-2.0039-5.4375-4.8242-0.16797-2.7617 1.8594-5.1484 4.5977-5.4375 0.046875 0 0.12109-0.011719 0.17969-0.011719 0.33594-0.023438 33.539-1.8008 43.586 37.223 1.8125 7.1055 3.8281 18.648 6.3594 33.238 10.609 60.949 30.324 174.38 85.199 262.86 1.5 2.4258 0.74219 5.6055-1.668 7.1055-0.6875 0.41016-1.4219 0.64844-2.1758 0.73438z"/>
  <path d="m697 158.87c-1.2109 0.12109-2.4844-0.17969-3.5391-0.9375-2.2305-1.6094-2.7969-4.668-1.3203-6.9609 0.097656-0.22656 0.33594-1.0547-0.49219-2.5312-2.7734-4.8711-20.258-21.301-128.68-28.246-2.832-0.17969-4.9805-2.6289-4.8008-5.4727 0.17969-2.8438 2.7227-4.9805 5.4727-4.8125 82.906 5.3164 129.19 16.934 137.54 34.523 3.2031 6.7812-0.14453 11.762-0.52734 12.301-0.91406 1.2617-2.2461 1.9922-3.6602 2.1367z"/>
  <path d="m527.58 584.51c-25.129 2.6172-56.219 4.1055-94.668 3.9258-101.63-0.48047-155.3-11.676-164.09-34.246-3.7422-9.6602 1.9062-18.395 5.832-22.031 2.0742-1.9336 5.3398-1.8125 7.2734 0.27734 1.9336 2.0742 1.8125 5.3164-0.25391 7.2461-0.22656 0.21484-5.4492 5.2812-3.2383 10.824 3.2266 8.1016 24.73 27 154.51 27.613 168.37 0.80469 186.17-30.961 188.02-37.332 1.0312-3.5039-0.43359-5.9297-1.6797-6.707-2.3984-1.5117-3.1211-4.6914-1.6094-7.0938 1.5117-2.4102 4.7031-3.1328 7.0938-1.6094 4.6445 2.9297 8.5312 9.8984 6.0859 18.301-3.7812 12.969-23.387 32.551-103.27 40.832z"/>
  <path d="m504 660.94c-17.352 1.8008-36.938 2.9141-59.016 3.0586-99.035 0.66016-149.71-24.648-162.66-38.125-3-3.1094-4.4023-5.9531-4.2734-8.6758 0.38281-8.1719 0.96094-19.621-6.4688-36.816-8.7461-20.23-3.9961-36.254-3.7812-36.938 0.83984-2.7227 3.7305-4.2461 6.4453-3.4062 2.6992 0.82812 4.2344 3.6953 3.4062 6.4062-0.085938 0.27734-3.7422 13.367 3.3945 29.855 8.3516 19.379 7.7148 32.773 7.3203 40.789 4.2109 8.4102 51.758 37.309 156.54 36.613 99.973-0.63672 152.94-22.414 171.38-37.246-3.3242-5.6172-6.0703-16.727 2.125-36.395 10.285-24.602 2.6406-43.402 2.5547-43.586-1.0078-2.6523 0.96094-5.5312 3.6016-6.5625 2.6758-1.0547 4.9453 0.16797 6 2.7969 0.34766 0.89844 9.3359 22.668-2.6406 51.336-9.2656 22.164-1.5469 28.754-1.4648 28.812 1.1289 0.92578 1.9219 2.3281 1.9922 3.793 0.085938 1.4531-0.35938 2.9297-1.3789 3.9844-3.6055 3.6211-33.461 31.004-123.08 40.305z"/>
  <path d="m506.44 692.93c-16.5 1.7148-35.016 2.7617-55.836 2.8906-143.99 0.94922-179.64-38.762-181.09-40.453-0.78125-0.91016-1.2109-2.1016-1.2227-3.3008l-0.20312-29.219c-0.058593-11.137 2.2812-18.805 7.0078-22.789 3.9609-3.3359 8.0156-2.8438 8.7852-2.7109 2.7969 0.49219 4.668 3.168 4.1758 5.9648-0.46875 2.6758-2.8906 4.5-5.6055 4.2344-0.96094 0.13281-4.1523 2.9766-4.0664 15.227l0.17969 27.047c7.1758 6.3594 47.867 36.516 171.97 35.699 124.98-0.79297 164.81-35.746 171.46-42.625l-0.15625-25.922c-0.023437-2.8438 2.3516-5.1602 5.1133-5.1836 2.8438-0.023437 5.1719 2.2812 5.1836 5.1133l0.19141 27.887c0 1.1289-0.35937 2.2188-1.0195 3.1094-1.2305 1.6484-27.137 34.891-124.86 45.031z"/>
  <path d="m522.3 757.75c-23.844 2.4844-48.695 3.4062-71.293 3.5742-70.379 0.45703-136.4-12.73-165.23-25.969-14.258-6.5391-24-17.832-26.723-30.996-1.9688-9.4688 0.046875-18.961 5.2578-24.742 7.7148-8.5938 10.57-22.957 10.621-23.113 0.53906-2.7617 3.2148-4.6211 6.0234-4.0781 2.7852 0.55078 4.6211 3.2539 4.0781 6.0352-0.13281 0.70703-3.4062 17.281-13.055 28.02-3.0117 3.3594-4.1289 9.5625-2.832 15.781 1.2227 5.8203 5.543 16.668 20.953 23.746 27.109 12.457 92.711 25.453 160.86 25.02 86.785-0.60156 145-12.324 164.04-33.059 18.938-20.605 13.008-30.996 9.0977-37.859-0.48047-0.86328-0.9375-1.6562-1.2969-2.375-0.625-1.1992-1.8711-2.6289-3.1914-4.1523-4.3789-5.0273-12.504-14.387-0.85156-27.551 1.8828-2.125 5.1367-2.3281 7.2734-0.43359 2.125 1.8828 2.3047 5.1367 0.43359 7.2461-5.6758 6.4062-3.6016 8.7734 0.91016 13.969 1.6562 1.9219 3.3945 3.8867 4.5859 6.2148 0.30078 0.61328 0.68359 1.2461 1.0781 1.9688 4.4141 7.7266 13.586 23.797-10.453 49.945-17.332 18.852-57.188 28.32-100.29 32.809z"/>
  <path d="m663.74 670.34c-1.2109 0.13281-2.4492 0.20312-3.6953 0.21484-10.141 0.070312-19.668-3.8047-26.855-10.906-7.2109-7.1055-11.219-16.598-11.27-26.711-0.12109-20.832 16.488-37.992 37.656-38.137 20.855-0.12109 37.969 16.754 38.113 37.621 0.12109 19.605-14.473 35.914-33.949 37.918zm-6.8398-65.086c-14.148 1.4766-24.758 13.344-24.684 27.625 0.046875 7.3672 2.9531 14.27 8.207 19.441 5.2305 5.1719 12.191 7.9922 19.57 7.9453 15.312-0.058593 27.48-12.602 27.383-27.758-0.12109-15.191-12.562-27.492-27.758-27.395-0.90625-0.015626-1.8164 0.042968-2.7188 0.14062z"/>
  <path d="m511.88 1136.9c-17.762 1.8359-37.859 2.9414-60.574 3.0859-116.5 0.75781-164.26-24.551-183.78-45.938-15.793-17.258-14.484-33.012-14.41-33.672l-0.10938-13.969c-46.68-42.012-70.586-101.57-71.102-177.04-0.67188-105.42 87.324-153.8 88.211-154.27 2.4727-1.332 5.6172-0.42187 6.9727 2.1016 1.332 2.5078 0.40625 5.6289-2.1016 6.9727-0.82812 0.44531-83.41 46.066-82.766 145.14 0.49219 73.344 23.809 130.84 69.324 170.9 1.0938 0.98438 1.7383 2.3633 1.7539 3.8398l0.10938 16.789c-0.046875 0.96094-0.79297 12.852 12.168 26.734 18.312 19.621 63.66 42.828 175.7 42.109 112.75-0.71875 157.67-24.793 175.54-44.867 12.336-13.859 11.426-25.766 11.41-25.883l-0.16406-17.34c0-1.4531 0.61328-2.8555 1.7148-3.8398 26.242-23.734 44.328-52.188 55.285-87 0.85156-2.7109 3.7422-4.2109 6.4688-3.3711 2.7109 0.85156 4.2227 3.7422 3.3477 6.4688-11.281 35.832-29.773 65.305-56.508 89.977l0.10938 14.52c0.023437 0.14453 1.5703 15.863-13.992 33.324-15.504 17.395-49.25 37.594-122.61 45.223z"/>
  <path d="m693.9 794.35c-2.0391 0.22656-4.1055-0.79297-5.1133-2.7461-24.66-47.496-66.191-69.504-66.602-69.719-2.5195-1.3086-3.5039-4.4297-2.207-6.9609 1.3203-2.5078 4.4414-3.5039 6.9492-2.1836 1.8125 0.94922 44.844 23.746 70.992 74.125 1.3086 2.5078 0.32422 5.6289-2.1953 6.9375-0.5625 0.32031-1.2109 0.48828-1.8242 0.54687z"/>
  <path d="m713.35 1001.7c-1.8359 0.20312-3.7188-0.64844-4.8008-2.2578-13.836-20.723-25.871-100.55-19.691-226.87 3.2891-66.961-1.8359-99.961-6.7422-115.86-0.81641-2.7109 0.69531-5.5938 3.4062-6.4336 2.7344-0.81641 5.6055 0.69531 6.4336 3.4062 7.4883 24.266 9.8984 64.441 7.2109 119.39-6.0469 122.87 5.8203 195.24 15.863 216.85l7.9062-3.5898c-12.539-26.941-22.57-104.18-16.766-221.59 5.1367-104.16-10.094-126.82-14.34-131.06-1.1758-0.81641-1.8242-1.2109-1.8945-1.2461-2.207-1.2734-3.1562-3.9961-2.207-6.3594 0.94922-2.3633 3.4805-3.707 5.9648-3.1211 0.94922 0.23828 2.5781 0.85156 4.5586 2.6172 10.871 7.5977 46.246 37.008 63.648 107.8 19.609 79.645-5.375 189.01-16.895 209.17-0.89844 1.5859-2.5938 2.5664-4.4141 2.6055l-17.891 0.12109c3.6016 21.359 7.9062 34.906 11.734 40.609 0.82812 1.2617 1.0781 2.832 0.66016 4.2734-0.39453 1.4531-1.4297 2.6641-2.8086 3.2773l-17.281 7.8359c-0.57422 0.26172-1.1055 0.39453-1.6562 0.44141zm16.379-66.766 7.5977-0.070313c9.8047-22.055 33.625-121.6 14.566-199.02-10.355-42.18-27.562-68.93-41.219-84.648 0.75781 2.9648 1.4766 6.2148 2.1484 9.8164 0.26562 0.21484 0.52734 0.46875 0.74219 0.74219 12.719 15.445 28.836 69.238 29.52 71.52 17.848 72.504-1.1016 169.33-13.355 201.66zm-13.5-246.67c1.5 19.355 1.8242 44.461 0.25391 77.004-3.6016 72.707-0.89844 127.73 3.9727 165.01 10.586-29.09 30.625-121.49 12.719-194.3-2.9297-9.7188-9.8516-31.02-16.945-47.711z"/>
 </g>
</svg>
