<?xml version="1.0" encoding="UTF-8"?>
<svg width="1200pt" height="1200pt" version="1.1" viewBox="0 0 1200 1200" xmlns="http://www.w3.org/2000/svg">
 <g>
  <path d="m221.79 904.27c0.046875-0.046876 0.097656-0.10938 0.13281-0.14453 0.80469-0.79297 1.8828-1.2461 3.0352-1.2461l750.11-0.16797c1.1523 0 2.2305 0.44531 3.0352 1.2461 0.80469 0.80469 1.2461 1.8828 1.2461 3.0469l0.046875 128.65c0 2.3516-1.9219 4.2852-4.2852 4.2852l-750.13 0.16797c-2.3516 0-4.2852-1.9062-4.2852-4.2852l-0.011719-128.66c-0.007812-1.0547 0.38672-2.0898 1.1094-2.8906zm748.99 7.0195-741.54 0.15625 0.023438 120.1 741.55-0.15625z"/>
  <path d="m253.23 444.1c0.79297-0.86328 1.9219-1.3906 3.168-1.3906 2.3633 0 4.2852 1.9219 4.2852 4.2852l0.097656 460.18c0 2.3633-1.9219 4.2969-4.2852 4.2852-2.3633 0.011719-4.2852-1.9062-4.2734-4.2852l-0.10547-460.18c0-1.1172 0.42969-2.1367 1.1133-2.8906z"/>
  <path d="m940.3 443.94c0.78125-0.86328 1.9062-1.4023 3.1562-1.3906 2.375 0 4.2852 1.9219 4.2852 4.2852l0.097657 460.2c0 2.3398-1.9219 4.2852-4.2852 4.2734-2.3633 0.011718-4.2852-1.9219-4.2852-4.2852l-0.097656-460.19c-0.011719-1.1094 0.42188-2.1406 1.1289-2.8945z"/>
  <path d="m277.77 444.09c0.78125-0.83984 1.9062-1.3906 3.1562-1.3906 2.375 0 4.2852 1.9219 4.2852 4.2852l0.011719 85.895c0.011719 1.2109-0.46875 2.3633-1.4023 3.168l-54.66 49.559 0.035156 185.63c0 2.3398-1.9219 4.2969-4.2852 4.2852-2.375 0-4.2852-1.9219-4.2969-4.2852l-0.023437-187.52c0-1.2109 0.55078-2.375 1.4023-3.168l54.648-49.559-0.023438-83.988c0.023438-1.1211 0.44141-2.1406 1.1523-2.9062z"/>
  <path d="m465.3 444.04c0.76953-0.85156 1.9219-1.4023 3.168-1.3906 2.3633-0.011719 4.2734 1.9062 4.2852 4.2734l0.011719 70.117c-0.011719 0.33594-0.50391 18.348 11.039 30.312 7.0195 7.2617 17.184 10.945 30.203 10.945l164.91-0.023438c13.043 0 23.219-3.7188 30.238-11.004 11.375-11.902 11.016-29.93 11.004-30.121l0.003907-70.266c-0.011719-2.3516 1.9062-4.2852 4.2852-4.2852 2.3633 0 4.2734 1.9219 4.2852 4.2852v70.105c0.011719 0.71875 0.60156 21.445-13.414 36.215-8.6875 9.0469-20.93 13.645-36.395 13.645l-164.91 0.023438c-15.469 0.011718-27.719-4.5703-36.434-13.621-14.074-14.641-13.43-35.496-13.391-36.371l-0.011718-69.961c-0.019532-1.0898 0.41406-2.1094 1.1211-2.8789z"/>
  <path d="m510.85 559.69c0.78125-0.85156 1.9219-1.3906 3.1562-1.3906 2.375 0 4.2852 1.9219 4.2969 4.2969l0.011718 68.352c0 2.3398-1.9219 4.2969-4.2852 4.2852-2.3633 0-4.2852-1.9219-4.2852-4.2852l-0.023438-68.363c0-1.1055 0.43359-2.125 1.1289-2.8945z"/>
  <path d="m552.09 680.34c1.0195-1.1172 2.6055-1.6445 4.1758-1.2734 5.2578 1.2461 11.09 1.9062 17.387 1.9062l45.637-0.023437c54.434-0.011719 55.246-48 55.246-50.051v-68.34c-0.011719-2.3398 1.9062-4.2969 4.2852-4.2852 2.3516 0 4.2852 1.9219 4.2734 4.2852l0.011718 68.34c0 0.58984-0.70703 58.621-63.828 58.633l-45.648 0.011719c-6.9609 0-13.488-0.71875-19.391-2.1367-2.293-0.55078-3.7188-2.8672-3.168-5.1719 0.20312-0.73047 0.55078-1.3672 1.0195-1.8945z"/>
  <path d="m581.84 682.36c0.79297-0.85156 1.9219-1.3906 3.168-1.3906 2.3633-0.011719 4.2852 1.9219 4.2852 4.2852l0.011719 14.891c0 1.6445-0.9375 3.1328-2.3867 3.8516-0.27734 0.13281-27.07 13.598-34.414 33.457 2.6172-1.2617 6.3477-3.1797 11.641-6.0234 7.8711-4.2617 21.852-5.7969 32.316-5.8086l5.9883 0.011718c10.43 0 24.406 1.5117 32.328 5.7734 5.2695 2.8438 9 4.7539 11.617 6.0352-7.3672-19.934-34.164-33.324-34.441-33.457-1.4766-0.73047-2.3984-2.2188-2.3984-3.8398l-0.011719-14.891c0-2.3633 1.9219-4.2734 4.2852-4.2969 2.375 0 4.2969 1.9336 4.2969 4.2852v12.312c7.8125 4.3086 32.09 19.223 37.586 40.969 0.13281 0.46875 0.27734 0.9375 0.44531 1.3789 0.55078 1.6094 1.7539 4.9219-0.97266 7.2227-3.1445 2.6758-6.3242 1.6094-24.48-8.1602-6.0977-3.2891-18.59-4.7539-28.262-4.7539l-5.9883-0.011719c-11.641 0.011719-23.004 1.9453-28.246 4.7656-18.145 9.7695-21.336 10.848-24.48 8.1836-2.6875-2.2695-1.5234-5.6055-0.97266-7.2109 0.14453-0.43359 0.3125-0.91016 0.43359-1.3906 5.4844-21.742 29.699-36.684 37.523-40.98v-12.312c0.011718-1.1055 0.43359-2.125 1.1289-2.8945z"/>
  <path d="m442.08 665.35c3.6484-3.9844 7.1641-5.9023 7.4297-6.0469l121.86-51.574c7.7539-4.2969 27.73-8.1953 45 9.0859 1.6797 1.668 1.8125 4.5859-0.011719 6.0586-1.668 1.6797-4.3672 1.6797-6.0586 0-16.934-16.945-34.477-7.8359-35.219-7.4297l-121.87 51.59 0.011719 0.011719c-0.046875 0.058594-7.5234 4.4141-10.066 13.391-2.1367 7.5117-0.40625 16.297 5.1133 26.125 1.1641 2.0625 0.44531 4.7031-1.6211 5.832-2.0625 1.1758-4.6797 0.43359-5.8438-1.6445-6.7305-11.941-8.7227-22.992-5.8438-32.809 1.5547-5.4375 4.375-9.5898 7.1211-12.59z"/>
  <path d="m442.08 665.35c3.6016-3.9492 7.043-5.8438 7.4141-6.0469l121.86-51.574c9.7422-5.8906 32.629-11.773 45.648 9.8984 9.5742 15.938 3.2773 26.746-1.3086 31.754-2.6875 2.9141-5.2305 4.4023-5.5195 4.5586-3.8164 2.3047-96.133 58.008-122.89 70.836-24.121 11.555-40.957-4.1289-46.488-14.039-13.363-23.68-4.9297-38.605 1.2852-45.387zm11.148 1.6797c-0.058593 0.058594-2.3984 1.4531-4.8242 4.1172-5.6758 6.2031-10.309 17.363-0.14453 35.41 0.51563 0.875 12.504 21.434 35.305 10.5 26.41-12.648 121.33-69.926 122.28-70.5 0.097656-0.046875 1.7773-1.043 3.5039-2.9648 5.3047-5.7852 5.3984-13.031 0.28906-21.539-11.902-19.848-33.504-7.2461-34.414-6.7188z"/>
  <path d="m345.41 486.18c8.3164-9.0859 20.148-14.293 32.461-14.293 24.266 0 43.992 19.727 44.004 43.992 0.011718 11.039-4.0781 21.602-11.543 29.746-8.3164 9.0859-20.148 14.293-32.449 14.293-24.254 0-44.004-19.738-44.004-44.027-0.011719-11.027 4.0938-21.586 11.531-29.711zm58.586 53.652c6-6.5625 9.3008-15.059 9.2891-23.953 0-19.523-15.898-35.426-35.426-35.426-9.9102 0-19.43 4.1992-26.137 11.508-5.9883 6.5391-9.2891 15.035-9.2891 23.914 0.023437 19.547 15.898 35.449 35.438 35.449 9.9023 0.003906 19.418-4.1836 26.125-11.492z"/>
  <path d="m358.97 494.3c0.12109-0.14453 0.25391-0.26563 0.39453-0.39453 1.8242-1.5234 4.5234-1.2969 6.0469 0.51562l15.73 18.684c1.5234 1.8125 1.2109 4.5117-0.51562 6.0469-1.8242 1.5117-4.5234 1.2852-6.0469-0.51562l-15.73-18.684c-1.3906-1.668-1.3203-4.0938 0.12109-5.6523z"/>
  <path d="m260.34 1032.9c0.78125-0.83984 1.9062-1.3789 3.168-1.3906 2.3633 0.011719 4.2852 1.9219 4.2852 4.2969l0.023437 95.594 90.168-0.011719-0.011719-95.605c0-2.3516 1.9219-4.2852 4.2852-4.2852 2.375 0 4.2852 1.9219 4.2969 4.2852l0.011718 99.887c0 1.1289-0.33594 2.2422-1.2461 3.0234-0.79297 0.80469-1.8828 1.2461-3.0234 1.2461l-98.777 0.035156c-2.3633 0-4.2852-1.9219-4.2852-4.2852l-0.023437-99.875c0.011718-1.1172 0.43359-2.1367 1.1289-2.9141z"/>
  <path d="m830 1032.8c0.76953-0.83984 1.9219-1.3906 3.168-1.3672 2.3633-0.023437 4.2734 1.9062 4.2852 4.2852l0.011719 95.566h90.168l-0.035157-95.594c-0.011718-2.3398 1.9219-4.2852 4.2852-4.2852 2.375 0 4.2852 1.9219 4.2852 4.2852l0.035156 99.887c0 1.1289-0.37109 2.293-1.2461 3.0352-0.79297 0.79297-1.8945 1.2461-3.0352 1.2461l-98.746 0.011719c-2.3633 0.011719-4.2852-1.9062-4.2852-4.2734l-0.011719-99.887c-0.019531-1.1094 0.42578-2.1172 1.1211-2.9102z"/>
  <path d="m224.44 219.79c0.79297-0.86328 1.9219-1.3906 3.1797-1.3906l744.53-0.16797c2.3633 0 4.2852 1.9219 4.2852 4.2852l0.058593 224.32c0.011719 1.1289-0.35938 2.3047-1.2617 3.0234-0.78125 0.80469-1.8828 1.2617-3.0234 1.2461l-744.56 0.16797c-1.1289 0-2.2188-0.45703-3.0234-1.2461-0.79297-0.79297-1.2617-1.8828-1.2461-3.0352l-0.046875-224.3c-0.015625-1.1094 0.41406-2.1289 1.1133-2.8945zm743.41 7.0195-735.96 0.15625 0.023437 215.73 736-0.16797z"/>
  <path d="m275.55 307.75c8.5938-9.3711 20.809-14.762 33.527-14.773 25.066 0 45.469 20.41 45.469 45.492 0 11.387-4.2344 22.285-11.941 30.684-8.5781 9.3828-20.809 14.762-33.527 14.762-12.145 0-23.555-4.7266-32.148-13.297-8.6055-8.5781-13.32-20.004-13.32-32.148 0.003907-11.402 4.25-22.309 11.941-30.719zm60.746 55.605c6.2266-6.8047 9.6719-15.648 9.6719-24.898 0-20.352-16.547-36.91-36.898-36.898-10.309 0-20.23 4.3789-27.191 11.988-6.2539 6.8164-9.6953 15.672-9.6836 24.926 0 9.8516 3.8281 19.117 10.801 26.074 6.9727 6.9609 16.246 10.789 26.102 10.789 10.312-0.003906 20.238-4.3594 27.199-11.98z"/>
  <path d="m386.81 307.73c8.5781-9.3711 20.797-14.746 33.504-14.762 25.066 0 45.492 20.398 45.504 45.48 0 11.398-4.2344 22.285-11.93 30.684-8.6055 9.3828-20.82 14.773-33.539 14.773-25.078 0-45.469-20.387-45.48-45.457 0.011718-11.41 4.25-22.305 11.941-30.719zm60.766 55.609c6.2383-6.8164 9.6719-15.648 9.6719-24.898-0.011719-20.34-16.57-36.898-36.938-36.898-10.297 0-20.219 4.3672-27.18 11.977-6.2539 6.8164-9.6836 15.684-9.6836 24.938 0.011719 20.34 16.547 36.875 36.898 36.875 10.324-0.015625 20.25-4.3828 27.23-11.992z"/>
  <path d="m824.06 295.79c11.891-12.996 28.824-20.449 46.453-20.449 16.824-0.011719 32.652 6.5391 44.555 18.434 11.891 11.879 18.445 27.707 18.445 44.543 0 15.793-5.8555 30.91-16.523 42.562-11.902 12.984-28.824 20.438-46.441 20.449-34.754 0-63.023-28.262-63.023-63 0-15.781 5.8555-30.898 16.535-42.539zm86.605 79.297c9.2148-10.043 14.281-23.113 14.27-36.77 0-14.531-5.6641-28.211-15.938-38.484-10.273-10.262-23.953-15.926-38.496-15.91-15.215 0-29.832 6.4336-40.129 17.664-9.2148 10.055-14.27 23.113-14.27 36.77 0.011719 30 24.434 54.406 54.434 54.406 15.219-0.015625 29.844-6.457 40.129-17.676z"/>
  <path d="m499.95 285.56c0.035157-0.035156 0.085938-0.097656 0.13281-0.13281 0.79297-0.80469 1.8945-1.2617 3.0352-1.2617l194.52-0.023438c2.3633-0.011719 4.2852 1.9219 4.2734 4.2852l0.023438 99.887c0 2.3398-1.9336 4.2852-4.2852 4.2852l-194.52 0.035157c-2.3633 0-4.2852-1.9219-4.2852-4.2852l-0.011719-99.887c-0.011719-1.0781 0.39453-2.1094 1.1172-2.9023zm193.4 7.1523-185.95 0.035156 0.011719 91.309 185.95-0.035156z"/>
  <path d="m499.61 344.16c0.76953-0.85156 1.9062-1.3906 3.1562-1.3906l194.5-0.046875c2.3633 0 4.2852 1.9219 4.2852 4.2969 0 2.3516-1.9219 4.2969-4.2852 4.2852l-194.5 0.046874c-2.375 0-4.2852-1.9219-4.2852-4.2969 0-1.1055 0.41797-2.1133 1.1289-2.8945z"/>
  <path d="m597.23 344.14c0.76953-0.85156 1.9062-1.3906 3.168-1.3906 2.3633 0 4.2852 1.9219 4.2734 4.2852l0.011719 41.293c0 2.3398-1.9219 4.2852-4.2852 4.2852-2.375 0-4.2734-1.9219-4.2734-4.2852l-0.023438-41.293c-0.007812-1.1055 0.41016-2.1289 1.1289-2.8945z"/>
  <path d="m647.03 344.12c0.75781-0.85156 1.9062-1.3906 3.168-1.3906 2.3516-0.011719 4.2734 1.9219 4.2734 4.2852l0.011719 41.305c0 2.3516-1.9336 4.2734-4.2969 4.2734-2.3516 0-4.2734-1.9062-4.2852-4.2852v-41.293c-0.011719-1.1094 0.42187-2.1289 1.1289-2.8945z"/>
  <path d="m547.44 344.15c0.76953-0.83984 1.8945-1.3906 3.1562-1.3906 2.3633 0 4.2852 1.9219 4.2852 4.2852v41.293c0 2.3516-1.9219 4.2852-4.2852 4.2852-2.3633 0-4.2852-1.9219-4.2852-4.2852v-41.293c0-1.1055 0.41797-2.1406 1.1289-2.8945z"/>
  <path d="m328.55 150.84c0.78125-0.85156 1.9062-1.3906 3.1562-1.3906l541.67-0.10938c2.3633-0.011719 4.2969 1.9219 4.2969 4.2852-0.011719 2.3516-1.9336 4.2969-4.2852 4.2852l-541.68 0.10938c-2.3633 0-4.2852-1.9219-4.2852-4.2852 0.003906-1.1172 0.42188-2.125 1.1289-2.8945z"/>
  <path d="m224.41 150.86c0.046875-0.046875 0.097656-0.097656 0.13281-0.13281 0.79297-0.80469 1.8945-1.2617 3.0352-1.2617l57.625-0.011719c2.3633 0 4.2852 1.9219 4.2852 4.2852-0.011719 2.3516-1.9336 4.2852-4.2852 4.2852l-53.34 0.011718 0.011719 60.348 735.96-0.16797v-60.336h-51.254c-2.3633 0-4.2852-1.9219-4.2852-4.2852 0-2.3633 1.8945-4.2852 4.2734-4.2852h55.559c2.3516 0 4.2852 1.9219 4.2852 4.2852l0.011719 68.914c0 1.1406-0.38281 2.3164-1.2617 3.0352-0.78125 0.80469-1.8828 1.2461-3.0234 1.2461l-744.54 0.16797c-2.3633 0-4.2852-1.9219-4.2852-4.2852l-0.023437-68.93c-0.007813-1.0469 0.39844-2.0898 1.1172-2.8828z"/>
  <path d="m282.02 61.523c0.78125-0.85156 1.9219-1.3906 3.1797-1.3906l631.36-0.13281c1.1406 0 2.2305 0.44531 3.0352 1.2461 0.79297 0.79297 1.2461 1.8828 1.2461 3.0234l0.023437 158.26c0.011719 2.3398-1.9062 4.2969-4.2852 4.2852-2.3633 0-4.2734-1.9219-4.2852-4.2969l-0.027344-153.95-622.78 0.14453 0.023438 153.98c0 2.3516-1.9219 4.2852-4.2852 4.2734-2.3633 0.011719-4.2852-1.9219-4.2852-4.2852l-0.035156-158.25c0-1.1172 0.42188-2.1367 1.1172-2.9062z"/>
  <path d="m322.96 82.559c0.035157-0.046875 0.085938-0.097656 0.13281-0.13281 0.79297-0.80469 1.8828-1.2617 3.0234-1.2617l547.26-0.12109c2.3516 0 4.2734 1.9219 4.2852 4.2852l0.023438 131.34c-0.011719 2.3516-1.9062 4.2852-4.2852 4.2852-2.3633 0-4.2852-1.9219-4.2852-4.2852l-0.023437-127.04-538.69 0.12109 0.035156 132.91c0 2.3516-1.9336 4.2969-4.2969 4.2852-2.3633 0-4.2852-1.9219-4.2852-4.2852l-0.023437-137.21c0-1.0703 0.39453-2.1016 1.1289-2.8945z"/>
  <path d="m466.32 104.72c0.79297-0.85156 1.9219-1.3906 3.168-1.3906l265.25-0.058593c2.3633 0 4.2969 1.9219 4.2852 4.2852 0 2.3516-1.9219 4.2852-4.2852 4.2852l-265.25 0.054688c-2.375 0.011718-4.2852-1.9219-4.2852-4.2852 0-1.1133 0.42188-2.1328 1.1172-2.8906z"/>
  <path d="m466.33 131.58c0.78125-0.85156 1.9062-1.3906 3.1562-1.3906l265.26-0.046875c2.3633 0 4.2734 1.9219 4.2852 4.2852-0.011718 2.3516-1.9336 4.2852-4.2969 4.2852l-265.25 0.058593c-2.3633 0-4.2852-1.9219-4.2852-4.2852 0.007813-1.1172 0.42969-2.1367 1.125-2.9062z"/>
  <path d="m309.37 875.15c3.625-3.9375 9.4688-7.1523 18.395-7.1523l535.69-0.10938c16.477-0.011719 22.43 10.934 23.27 16.715l0.058594 22.43c-0.011718 2.3398-1.9336 4.2852-4.2969 4.2734-2.375 0.011718-4.2734-1.9219-4.2734-4.2852v-21.793c-0.12109-0.28906-1.9453-8.7617-14.746-8.7617l-535.69 0.12109c-13.309 0-14.762 9-14.797 9.3945l0.046875 21.18c-0.011719 2.3516-1.9336 4.2852-4.2852 4.2969-2.3633 0-4.2969-1.9219-4.2969-4.2852l-0.011718-21.805c0.39062-2.9609 1.8672-6.8594 4.9375-10.219z"/>
 </g>
</svg>
