<?xml version="1.0" encoding="UTF-8"?>
<svg width="1200pt" height="1200pt" version="1.1" viewBox="0 0 1200 1200" xmlns="http://www.w3.org/2000/svg">
 <g>
  <path d="m286.62 278.39c-0.070313-0.38281-0.12109-0.81641-0.12109-1.2109-0.035156-28.871 11.398-56.062 32.172-76.488 20.746-20.398 48.324-31.609 77.676-31.645l208.3-0.16797c60.602-0.035156 110 48.422 110.03 107.94 0 3.2383-2.6172 5.832-5.7852 5.832-3.2266 0-5.8438-2.6172-5.8086-5.7852-0.035156-53.219-44.195-96.422-98.438-96.383l-208.26 0.17969c-26.293 0-51 10.031-69.562 28.32-18.551 18.227-28.738 42.445-28.703 68.195 0 3.2031-2.6055 5.8086-5.8086 5.8203-2.8047 0-5.1328-1.9922-5.6836-4.6094z"/>
  <path d="m469.34 174.83c-0.085938-0.40625-0.13281-0.78125-0.13281-1.1992-0.011719-5.8789 2.2695-11.41 6.4219-15.562 4.1758-4.1992 9.6719-6.4922 15.562-6.4922l18.551-0.011719c12.121-0.023438 22.031 9.7812 22.031 21.996 0.011718 3.2031-2.5664 5.7852-5.7852 5.7852-3.1914 0.011719-5.8086-2.5312-5.7852-5.7617 0-5.8203-4.7148-10.43-10.465-10.43l-18.539 0.011718c-2.7852 0-5.4102 1.0938-7.3555 3.0469-1.9805 1.9805-3.0469 4.6094-3.0469 7.3789 0.011719 3.2031-2.5781 5.7969-5.7617 5.7969-2.793 0.039062-5.1445-1.9297-5.6953-4.5586z"/>
  <path d="m450.01 122.35c-0.75781-3.5273-1.1172-7.1406-1.1172-10.727-0.023437-13.801 5.3281-26.762 15.047-36.504 9.7305-9.7422 22.68-15.098 36.48-15.121 24.203-0.011719 45.434 17.125 50.461 40.801 0.75781 3.5156 1.1406 7.1055 1.1406 10.738 0.011718 28.43-23.102 51.59-51.539 51.59-24.215 0.023438-45.457-17.125-50.473-40.777zm89.531-19.117c-3.8867-18.371-20.34-31.656-39.109-31.656-10.703 0-20.746 4.1875-28.262 11.746-7.5703 7.5234-11.723 17.594-11.699 28.297 0.011719 2.7734 0.28906 5.5781 0.875 8.3047 3.8984 18.336 20.352 31.621 39.145 31.621 22.008-0.035156 39.949-17.965 39.949-39.984-0.007812-2.8203-0.32031-5.625-0.89844-8.3281z"/>
  <path d="m270.71 304.18c-0.085937-0.37109-0.13281-0.78125-0.13281-1.1875v-25.801c0-1.7266 0.76953-3.3242 2.0898-4.4414 1.2969-1.0938 3.0586-1.5586 4.7383-1.2617 0.625 0.12109 62.508 11.172 223.18 11.039 160.69-0.10938 222.55-11.258 223.16-11.363 1.6797-0.3125 3.4336 0.13281 4.7656 1.2109 1.2969 1.1172 2.0742 2.7344 2.0742 4.4531l0.046875 25.812c0.011719 3.0469-2.3398 5.5781-5.3984 5.7852-1.1875 0.097656-120.76 8.207-224.64 8.3047-103.86 0.058594-223.41-7.8594-224.61-7.957-2.625-0.17578-4.75-2.1094-5.2773-4.5938zm11.438-20.23 0.023438 13.586c24.457 1.5469 127.5 7.668 218.41 7.5703 90.938-0.058593 193.98-6.3008 218.47-7.8828l-0.023437-13.586c-19.922 2.8906-84.637 10.379-218.45 10.465-133.79 0.11719-198.52-7.2969-218.43-10.152z"/>
  <path d="m229.01 356.95c-0.23828-1.2109-0.12109-2.4375 0.37109-3.5742 20.734-46.414 67.883-54.359 69.875-54.672 3.168-0.51562 5.9297 1.6094 6.6484 4.8008 0.50391 3.1328-1.6562 6.1094-4.8008 6.6367-0.40625 0.070313-37.094 6.3945-56.855 39.707 16.715 0.21484 43.777 2.7109 49.02 16.043 1.5352 2.7109 4.4141 10.117 4.8594 28.078 1.2734 0.3125 2.543 0.67188 3.8398 1.0078 0.097656 0.035156 0.17969 0.046875 0.26562 0.085937 16.105 2.9531 64.523 8.6523 198.43 8.5312 179.8-0.13281 205.95-5.5547 206.99-5.7969 1.7148-0.39453 3.5391 0.035157 4.9062 1.1172 1.3672 1.0938 2.1953 2.6992 2.2305 4.5352l0.023438 70.691-0.058594-0.023437c0.035156 1.3203-0.25391 2.6406-0.81641 3.6133-2.375 4.1289-9.6016 16.68-213.2 16.836-100.23 0.097657-221.34-2.1719-229.01-13.332-0.67187-0.97266-0.99609-2.1016-0.99609-3.2773l-0.058594-81.266c0-1.5586 0.625-3.0586 1.7656-4.1875 1.1289-1.0781 2.6758-1.668 4.2461-1.6211 0.27734 0.011719 4.1875 0.16797 9.8164 0.9375-0.64844-15.516-3.2539-20.16-3.2773-20.219-0.37109-0.50391-0.49219-0.80469-0.68359-1.4141-1.8828-5.8555-26.688-9.4336-47.617-8.6875-1.9805 0.085938-3.875-0.875-4.9922-2.5312-0.47656-0.62891-0.75391-1.3359-0.92188-2.0195zm53.207 46.02 0.046875 71.074c9.5156 2.5078 50.426 9.0703 218.45 8.9297 162.49-0.097656 195.94-8.4961 202.49-11.219l-0.023438-61.668c-15.91 1.7148-64.234 4.9922-202.51 5.1367-163.07 0.10938-201.28-8.2812-209.16-10.848-3.4922-0.66406-6.7188-1.1328-9.2891-1.4062z"/>
  <path d="m694.25 405.85c-0.13281-0.50391-0.16797-1.0195-0.13281-1.5469 3.3242-60.961 9.4062-99.168 16.715-104.79 2.5312-1.957 6.1797-1.4883 8.1484 1.043 1.7266 2.2695 1.5234 5.4727-0.32422 7.4766-0.88672 1.4141-8.5195 15.961-12.949 96.898-0.19141 3.2031-2.8906 5.6523-6.0977 5.4727-2.6445-0.12891-4.8281-2.0625-5.3594-4.5586z"/>
  <path d="m290.63 1044.6c-2.9648-13.98-3.2031-28.379-3.2031-33.121l-0.38672-529.74c-0.011718-3.2148 2.5938-5.8203 5.7969-5.8203 3.2031 0 5.832 2.5664 5.7852 5.8203l0.39453 529.78c-0.035156 19.141 4.4141 49.031 14.039 52.43 2.9883 1.1055 4.5859 4.3906 3.5156 7.4023-1.0547 3.0352-4.3672 4.6211-7.3906 3.5273-10.223-3.6016-15.66-16.742-18.551-30.277z"/>
  <path d="m667.68 1070.4c-0.58984-2.7852 0.97266-5.6523 3.7422-6.6367 9.6367-3.4062 14.016-33.336 13.945-52.465l-0.40625-529.81c0-3.2031 2.6055-5.7617 5.7969-5.7617 3.1914 0 5.8438 2.543 5.7969 5.7617l0.40625 529.8c0.035156 9.2539-0.85156 56.004-21.684 63.359-3.0117 1.1055-6.3242-0.45703-7.4023-3.4922-0.074219-0.22656-0.13672-0.48828-0.19531-0.75391z"/>
  <path d="m703.36 468.39c-0.070313-0.37109-0.13281-0.80469-0.13281-1.2109 0-3.1797 2.6055-5.7617 5.8203-5.7852l58.234-0.070313c2.4258-2.4961 7.4648-9.2266 7.4414-21.445 0-12.168-5.0742-18.898-7.4766-21.406l-58.246 0.035157c-3.2266 0-5.832-2.5664-5.7969-5.7852-0.011719-3.2031 2.5781-5.7969 5.7969-5.7969l60.492-0.058594c1.2461 0 2.4492 0.42188 3.457 1.1523 0.50391 0.39453 13.32 10.055 13.379 31.859 0.011719 21.816-12.793 31.5-13.344 31.895-1.0078 0.74219-2.207 1.1758-3.457 1.1758l-60.48 0.035156c-2.7812 0.003907-5.1094-1.9531-5.6875-4.5938z"/>
  <path d="m738.18 952.14c-0.085938-0.35938-0.12109-0.76953-0.12109-1.1875 0-3.2031 2.5664-5.8086 5.7617-5.8086 104.54-0.085937 147.43-37.535 186.17-102.2 37.355-62.363 43.934-212.11-6.3945-327.25-46.906-107.38-146.22-95.039-150.42-94.453-3.1562 0.44531-6.0234-1.7891-6.5039-4.9453-0.49219-3.1445 1.7266-6.0859 4.8945-6.5156 1.1289-0.17969 112.15-14.352 162.65 101.26 41.508 95.004 54.07 257.15 5.7461 337.88-39.84 66.516-86.578 107.75-196.13 107.81-2.7422 0.011719-5.0977-1.9414-5.6484-4.582z"/>
  <path d="m738.14 890.75c-0.12109-0.57422-0.15625-1.1758-0.12109-1.7773 0.3125-3.1797 3.168-5.5312 6.3242-5.1953 4.8594 0.44531 119.3 10.055 145.54-101.69 27.203-116.12-10.414-233.27-29.305-258.21l-4.6172-6.1914c-16.836-22.727-30.156-40.703-84.012-48.035-3.1914-0.44531-5.3867-3.3594-4.957-6.5039 0.42187-3.1914 3.3477-5.4102 6.5156-4.9688 58.691 8.0039 74.016 28.68 91.777 52.633l4.5469 6.0859c20.438 27.012 59.797 146.34 31.309 267.82-28.523 121.75-156.62 110.75-157.91 110.61-2.5938-0.28125-4.5742-2.1523-5.0898-4.5664z"/>
  <path d="m685.44 963.19c-0.070312-0.34766-0.13281-0.76953-0.10938-1.1992-0.023437-3.2148 2.5938-5.7852 5.7734-5.7852l26.004-0.023437c11.531-0.023438 20.902-9.3945 20.902-20.93l-0.011719-32.93c0-11.461-9.3945-20.867-20.93-20.867l-26.016 0.011719c-3.2148 0-5.8203-2.5312-5.7969-5.7852 0-3.1797 2.5938-5.7734 5.7969-5.7734l26.016-0.035156c17.891 0 32.555 14.52 32.508 32.461l0.046875 32.93c0 17.914-14.594 32.484-32.484 32.52l-26.027 0.011719c-2.7812-0.019531-5.1211-1.9648-5.6719-4.6055z"/>
  <path d="m337.33 1083.4c-0.16797-0.82812-0.16797-1.7148 0.035157-2.5664 0.76953-3.1094 3.8867-5.0273 6.9961-4.2461 0.53906 0.13281 55.152 13.176 142.92 13.609 88.738-0.55078 150.3-17.113 150.91-17.293 3.1211-0.81641 6.2773 1.0078 7.1406 4.0664 1.0078 3.0859-0.96094 6.2773-4.0547 7.1289-0.63672 0.16797-60.863 16.355-147.86 17.641-0.30078 0.046874-0.61328 0.070312-0.92578 0.070312h-0.035157c-0.26562 0-0.53906 0.023438-0.83984 0h-8.2422-0.035156c-0.26562 0-0.50391 0-0.74219-0.035156-86.461-0.85156-138.72-13.379-140.99-13.906-2.2266-0.57812-3.8086-2.3438-4.2773-4.4688z"/>
  <path d="m325.63 1124.7c-2.8672-13.477 2.1719-36.254 12.898-55.246 13.98-24.781 11.988-46.766 11.977-46.98l-0.39453-495.61-12.48-39.254c-0.9375-3.0469 0.70703-6.3008 3.7422-7.2461 3.0703-0.98437 6.3008 0.68359 7.2969 3.7422l12.742 40.117c0.20313 0.5625 0.27734 1.1523 0.27734 1.7656l0.38281 495.94c0.070312 0.48047 2.3164 25.309-13.465 53.258-14.102 24.961-13.586 48.336-10.246 50.484 2.6172-0.097656 11.016-6.1797 17.184-10.609 17.062-12.301 40.465-29.16 65.941-27.672 3.2148 0.17969 5.6641 2.9531 5.4727 6.1094-0.17969 3.2148-2.9414 5.6523-6.1211 5.4375-21.406-1.2461-42.828 14.23-58.5 25.523-10.668 7.6914-17.711 12.77-23.93 12.77-4.3906 0-8.125-2.2578-10.5-6.3242-1.0195-1.7109-1.7734-3.832-2.2773-6.1992z"/>
  <path d="m286.18 1120.2c-1.4883-6.9492-0.61328-18.254 11.641-32.508 14.723-17.113 15.816-66.504 15-84.059l-0.35938-479.39c0-0.35938 0.023438-0.73047 0.10938-1.0938l7.5-39.371c0.60156-3.1445 3.625-5.207 6.793-4.6211 3.1445 0.61328 5.1953 3.6719 4.5977 6.793l-7.4023 38.832 0.35937 478.6c0.12109 2.5195 2.9023 67.777-17.797 91.871-7.957 9.2539-11.051 18.145-8.4961 24.492 1.8945 4.6094 6.8398 7.6445 13.586 8.2305 16.754 1.5352 24.098-1.7539 24.18-1.7773 2.8789-1.3203 6.3359-0.10938 7.6914 2.7461 1.332 2.8555 0.21484 6.2539-2.5938 7.668-0.97266 0.49219-10.164 4.7539-30.312 2.9414-11.074-1.0078-19.754-6.7812-23.293-15.469-0.44531-1.0781-0.85547-2.3867-1.2031-3.8867z"/>
  <path d="m325.08 1113.5c-0.39453-1.8711 0.13281-3.8867 1.5977-5.3164 0.85156-0.875 21.648-21.133 55.691-24.805 3.2031-0.33594 6.0352 2.0039 6.3945 5.1367 0.32422 3.168-1.957 6.0586-5.1602 6.3945-29.832 3.2148-48.602 21.324-48.793 21.492-2.2812 2.2578-5.9297 2.2578-8.1953-0.070313-0.80078-0.80469-1.3047-1.7891-1.5352-2.832z"/>
  <path d="m553.21 1094.3c-0.058594-0.27734-0.10938-0.57422-0.13281-0.85156-0.19141-3.2031 2.2578-5.9531 5.4258-6.1211 25.535-1.5352 48.961 15.254 66.035 27.574 6.1797 4.3906 14.617 10.477 17.16 10.547 3.3828-2.1602 3.8164-25.477-10.273-50.449-15.805-27.91-13.609-52.777-13.523-53.809l-0.40625-495.38c0.011718-0.58984 0.085937-1.2109 0.27734-1.7539l12.707-40.152c0.97266-3.0469 4.2344-4.7383 7.2617-3.7578 3.0469 0.94922 4.7656 4.2227 3.793 7.2852l-12.457 39.254 0.37109 495.04c-0.023438 0.75781-1.8594 22.98 12.047 47.555 12.648 22.32 17.438 49.848 10.715 61.402-2.375 4.0938-6.1094 6.3125-10.512 6.3125-6.1914 0-13.234-5.0391-23.902-12.719-15.672-11.27-37.176-26.711-58.559-25.414-2.9062 0.19531-5.4492-1.7852-6.0273-4.5547z"/>
  <path d="m636.06 1132.4c-0.26562-1.2461-0.13281-2.5938 0.45703-3.8047 1.4648-2.8906 4.9219-4.0195 7.7773-2.5664 0-0.035157 7.3672 3.2383 24.098 1.6914 6.7578-0.61328 11.688-3.6133 13.586-8.2578 2.5195-6.3242-0.55078-15.254-8.5195-24.457-20.734-24.07-18.059-89.352-17.93-92.125l-0.35938-478.33-7.4766-38.832c-0.60156-3.1445 1.4414-6.168 4.5703-6.793 3.168-0.61328 6.0469 1.2344 6.8047 4.5977l7.5703 39.371c0.070312 0.37109 0.13281 0.71875 0.13281 1.0938l0.32422 479.14c-0.76953 17.809 0.40625 67.211 15.145 84.289 14.914 17.316 12.938 30.227 10.488 36.371-3.4922 8.6758-12.191 14.449-23.258 15.492-20.172 1.8242-29.363-2.3867-30.336-2.9141-1.668-0.80469-2.75-2.2773-3.0742-3.9609z"/>
  <path d="m601.61 1086.5c-0.21484-0.99609-0.16797-2.0742 0.20312-3.0586 1.0312-3.0352 4.3203-4.6445 7.3438-3.625 1.3672 0.46875 33.758 11.773 45.156 28.957 1.7656 2.6641 1.0664 6.2656-1.6094 8.0156-2.6875 1.7891-6.2891 1.0664-8.0391-1.6211-7.668-11.508-30.961-21.516-39.277-24.383-1.9922-0.67188-3.3594-2.3516-3.7773-4.2852z"/>
  <path d="m468.17 946.57c-0.097657-0.39453-0.13281-0.78125-0.13281-1.1992l-0.035156-60.852c-0.023438-2.2188 1.2109-4.1992 3.1914-5.1836l8.3867-4.2227-0.28906-386.33c0-3.1797 2.5938-5.7969 5.7852-5.8203 3.2031 0.011718 5.832 2.6055 5.7969 5.7969l0.27734 389.94c0 2.1836-1.2461 4.1992-3.2031 5.1836l-8.375 4.1992 0.035157 52.57c5.543 0.97266 16.117 2.125 28.402-0.058594l-0.046874-52.523-8.3633-4.1875c-1.9922-0.98438-3.2031-2.9648-3.2266-5.1953l-0.27734-389.93c0-3.1797 2.5781-5.7969 5.7852-5.7969 3.2031 0 5.8203 2.543 5.7969 5.7969l0.28906 386.34 8.3867 4.1758c1.9453 0.97266 3.1797 2.9648 3.2148 5.1719l0.023438 60.852c0.023437 2.6758-1.8242 5.0391-4.4531 5.6758-23.219 5.4844-42.133 0.16797-42.91-0.058593-2.0781-0.58984-3.6133-2.3047-4.0586-4.3477z"/>
  <path d="m351.12 979.66c-0.19141-0.80469-0.16797-1.668 0.035156-2.5312 0.74219-3.1094 3.875-5.0273 6.9961-4.2969 0.35938 0.12109 38.387 8.9023 133.12 9 93.098-0.35938 130.05-9.1211 130.39-9.1914 3.1328-0.74219 6.2539 1.1523 7.0195 4.2461 0.63672 3.5039-1.1523 6.2656-4.2734 7.0312-1.5352 0.34766-37.895 8.9414-130.12 9.4805-0.14453 0.023438-0.27734 0.023438-0.42187 0.023438l-5.1367 0.023437h-2.7227c-0.20312 0-0.38281 0-0.58984-0.046875-92.102-0.40625-128.44-8.9297-129.97-9.2891-2.2734-0.55078-3.8828-2.3359-4.3242-4.4492z"/>
  <path d="m350.53 926.95c-0.625-2.8789 1.043-5.8086 3.9258-6.7305 1.8242-0.58984 45.719-14.242 119.34-14.27 3.2031 0 5.8086 2.5781 5.7969 5.7969 0.011719 3.1797-2.5938 5.7852-5.7969 5.7852-71.652 0.035156-115.43 13.609-115.86 13.715-3.0469 0.98438-6.3125-0.71875-7.2734-3.7305-0.046874-0.20703-0.10937-0.375-0.13281-0.56641z"/>
  <path d="m508.12 912.97c-0.085938-0.42188-0.13281-0.85156-0.12109-1.2969 0.046875-3.2031 2.6641-5.7461 5.8789-5.6992 68.566 0.94922 109.19 13.488 110.86 14.051 3.0703 0.97266 4.7656 4.2109 3.793 7.2852-0.94922 3.0352-4.2227 4.7266-7.2852 3.7422-0.35938-0.14453-40.812-12.574-107.52-13.523-2.7695-0.023438-5.0508-1.9688-5.6016-4.5586z"/>
 </g>
</svg>
