<?xml version="1.0" encoding="UTF-8"?>
<svg width="1200pt" height="1200pt" version="1.1" viewBox="0 0 1200 1200" xmlns="http://www.w3.org/2000/svg">
 <g>
  <path d="m311.66 249.19c0.48047-2.0039 1.9805-3.707 3.9727-4.4297l136.11-48.406c2.9414-0.89844 65.172-19.391 97.559-19.5 32.461-0.058594 89.258 18.215 91.656 18.961l175.29 48.238c2.7109 0.71875 4.6328 3.1797 4.6328 6.0117v9.7422c0.011719 3.5039-2.7852 6.2773-6.2383 6.2773l-496.84 1.2734c-3.457 0-6.2891-2.832-6.2891-6.2539l-0.046874-10.391c0-0.55078 0.070312-1.0664 0.20312-1.5234zm491.95 4.3203-166.25-45.66c-0.83984-0.27734-57.551-18.504-88.031-18.434-30.551 0.085937-93.035 18.648-93.66 18.863l-130.74 46.512z"/>
  <path d="m494.91 77.293c0.46875-1.8945 1.8242-3.5039 3.7422-4.2734l48.336-19.586c1.5117-0.58984 3.1797-0.58984 4.668-0.046875l48.504 19.344c2.832 1.1523 4.4141 4.1406 3.8047 7.1055l-19.273 95.184c-0.33594 2.7461-3.1445 5.0273-6.1211 5.0273h-0.51562c-0.81641 2.4961-3.1914 4.2734-5.9297 4.2734-3.4688 0-6.2773-2.8086-6.2773-6.2773v-4.2344c0.023438-3.5273 2.8203-6.2891 6.2773-6.2891h1.3203l17.219-85.078-41.309-16.43-41.137 16.691 17.605 84.973h1.332c1.6562 0 3.2539 0.67188 4.4531 1.8359 1.1641 1.1523 1.8477 2.7617 1.8477 4.4141v4.2461c0 3.4922-2.8086 6.3008-6.2656 6.3008-2.7617 0-5.1016-1.7656-5.9531-4.2109h-0.49219c-2.9648 0-5.5664-2.0898-6.1562-5.0508l-19.738-95.125c-0.17969-0.91016-0.15625-1.8711 0.058593-2.793z"/>
  <path d="m197.16 280.03c0.5625-2.2695 2.3516-4.0547 4.6914-4.6445 3.6367-0.82812 89.426-20.496 115.92-20.594 3.457 0 6.2656 2.7852 6.3008 6.2539 0.011719 3.4688-2.7852 6.2773-6.2656 6.3008-18.516 0.035156-70.789 10.934-97.32 16.754 56.809 43.176 123.73 209.79 126.8 217.48 0.23828 0.53906 0.35938 1.1172 0.43359 1.6797l10.98 102.1c0.097657 1.1289 2.6406 25.176 23.734 25.078l358.57-0.9375c21.098-0.035156 23.484-24.059 23.578-25.129l43.801-345.36c0.45703-3.4453 3.5508-5.8789 6.9961-5.4258 3.4453 0.40625 5.8789 3.5898 5.4492 6.9961l-43.766 345.17c-1.0664 12.301-9.8867 36.254-36.012 36.277l-358.59 0.96094c-26.148 0.070313-35.148-23.797-36.254-36.422l-10.895-101.14c-22.547-56.34-89.578-202.97-134.07-217.96-2.6641-0.91016-4.4023-3.4688-4.2617-6.2773 0.039063-0.39062 0.074219-0.8125 0.17188-1.1602z"/>
  <path d="m479.77 259.12c0.21484-0.875 0.64844-1.7266 1.2461-2.4609l63.48-77.449c1.8594-2.3516 5.1367-2.9414 7.7539-1.5703l145.75 76.957c2.207 1.1289 3.5156 3.4922 3.3125 5.9883l-30.203 375.89c-0.27734 3.4453-3.3008 6.0586-6.7422 5.7461-3.4688-0.25391-6.0352-3.2891-5.7461-6.7305l29.891-371.8-137.57-72.59-58.738 71.723 11.27 373.39c0.10938 3.5273-2.6289 6.3828-6.0703 6.4688-3.4805 0.13281-6.3594-2.6172-6.4688-6.0859l-11.34-375.78c-0.039063-0.55469 0.035156-1.1211 0.16797-1.6953z"/>
  <path d="m368.02 259.43c0.74219-3.0703 3.707-5.1367 6.9258-4.7031 3.4336 0.50391 5.8203 3.5898 5.375 7.0547l-32.617 242.99c-0.50391 3.4688-3.6367 5.832-7.0547 5.375-3.457-0.48047-5.8438-3.6133-5.3633-7.0547l32.605-242.96c0.007812-0.26562 0.070312-0.48047 0.12891-0.69531z"/>
  <path d="m377.93 635.2c0.68359-2.7344 3.1562-4.7539 6.0703-4.7539 3.4805 0 6.2656 2.7852 6.2891 6.2773l0.21484 83.762 344.46-0.86328-0.23828-83.809c0.023438-3.5156 2.8086-6.3008 6.2656-6.3008 3.4453 0 6.2773 2.7852 6.2773 6.2539l0.23828 90.059c0.023438 1.7031-0.66016 3.2891-1.8008 4.4531-1.1875 1.1992-2.7852 1.8477-4.4531 1.8477l-357 0.94922c-1.668 0.023438-3.2656-0.64844-4.4648-1.8477-1.1523-1.1289-1.8125-2.7461-1.8242-4.4141l-0.20312-90.09c0-0.50391 0.058593-1.0078 0.16797-1.5234z"/>
  <path d="m365.34 778.88c3.2539-13.094 20.316-21.324 22.297-22.262 1.0664-0.35938 14.953-4.6211 14.953-13.824-0.011719-6.8633-2.1953-9.5625-3.3242-10.031-3.3711-0.74219-5.3164-4.043-4.5586-7.4023 0-0.035156 0.011719-0.085937 0.035157-0.15625 0.82812-3.2773 4.2969-5.2812 7.6211-4.5977 4.7148 1.043 12.707 6.8164 12.781 22.117 0.035157 17.449-18.938 24.254-22.57 25.453-4.7031 2.3047-13.801 8.4258-15.145 14.027-1.9219 9.7188-45.086 295.75-52.559 345.25l476.91-1.2852c-7.7383-49.402-52.344-335.21-54.336-344.91-1.1289-5.6289-10.5-11.699-15.203-13.969-3.6836-1.1523-22.645-7.9062-22.703-25.332-0.023438-15.266 7.9688-21.086 12.66-22.141 3.3945-0.78125 6.7305 1.3555 7.4648 4.7383 0.74219 3.4219-1.3438 6.7422-4.7539 7.4883-0.69531 0.37109-2.8672 3.0586-2.832 9.9102 0.023438 9.3242 13.945 13.414 14.125 13.414 2.9141 1.2617 20.746 9.7812 23.531 23.398 2.2305 10.824 53.375 338.73 55.559 352.75 0.27734 1.7539-0.26562 3.6602-1.4414 4.9922-1.1758 1.4023-2.9141 2.2188-4.7539 2.2188l-491.48 1.2656c-1.8242 0-3.5742-0.80469-4.7539-2.207-1.2109-1.3906-1.7383-3.2266-1.4531-4.9922 2.0898-14.004 51.551-342.21 53.711-353.04 0.074218-0.30078 0.13672-0.56641 0.21875-0.87891z"/>
  <path d="m369.32 771.71c0.53906-2.207 2.1836-3.9961 4.4648-4.6094 58.945-15.875 103.21 3.1445 114.02 8.5195 14.867-4.4414 88.934-24.254 163.96-0.38281 12.07-5.6875 65.531-28.066 105.41-0.37109 2.8672 1.9805 3.6133 5.8789 1.5859 8.7227-1.9805 2.832-5.9023 3.5742-8.7109 1.5469-38.16-26.449-94.379 2.1367-94.922 2.4102-1.5117 0.74219-3.2656 0.91016-4.8594 0.39453-79.043-26.125-160.26 0.15625-161.07 0.35938-1.6797 0.60156-3.5273 0.42188-5.0625-0.45703-0.44531-0.23828-45.613-25.164-107.06-8.6289-3.3242 0.88672-6.793-1.0664-7.6914-4.4414-0.29297-1.0352-0.29297-2.0898-0.054687-3.0625z"/>
  <path d="m646.15 780.43c0.625-2.4844 2.7461-4.4414 5.4609-4.7031 3.4219-0.34766 6.5156 2.1602 6.8633 5.6172l34.691 350.83c0.3125 3.4336-2.1836 6.4453-5.6055 6.8047-3.4688 0.32422-6.5391-2.1602-6.8633-5.6172l-34.727-350.79c-0.074218-0.75781 0-1.4414 0.17969-2.1484z"/>
  <path d="m481.12 780.86c0.70703-2.8438 3.3359-4.8711 6.3359-4.7266 3.457 0.13281 6.1562 3.0469 6 6.4922l-13.668 350.91c-0.15625 3.4336-3.0352 6.1914-6.5039 6.0469-3.4688-0.15625-6.1562-3.1094-6.0352-6.4922l13.691-350.98c0.023438-0.39453 0.09375-0.85938 0.17969-1.2578z"/>
  <path d="m808.5 248.55c0.67188-2.6992 3.1328-4.7539 6.0703-4.7539l76.691-0.23828c1.5469-0.023438 40.066-0.43359 59.809 19.152 13.68 13.609 49.355 65.617 50.891 67.801 1.0781 1.5859 1.2969 3.7695 0.76953 5.4492l-92.844 291.32c-0.78125 2.6406-3.2266 4.3672-5.9297 4.3672l-78.625 0.22656c-3.4688 0-6.2773-2.8086-6.3008-6.2656 0.023438-3.4805 2.8086-6.2539 6.2773-6.2891l74.027-0.17969 90.527-284.03c-7.4297-10.715-36.457-52.332-47.652-63.527-16.02-15.863-50.508-15.492-50.844-15.492l-76.777 0.23828c-3.4453 0-6.2656-2.8086-6.2656-6.2266-0.003907-0.5625 0.054687-1.1016 0.17578-1.5586z"/>
 </g>
</svg>
