<?xml version="1.0" encoding="UTF-8"?>
<svg width="1200pt" height="1200pt" version="1.1" viewBox="0 0 1200 1200" xmlns="http://www.w3.org/2000/svg">
 <g>
  <path d="m666.76 118.13c2.1836 0.30078 3.8633 2.1836 3.8516 4.4414l0.44531 286.02c0.035156 15.469-12.504 28.031-27.984 28.055l-225.24 0.35938c-7.4531 0.023438-14.508-2.8906-19.824-8.1836-5.3281-5.3047-8.293-12.348-8.293-19.789l-0.45703-286.03c0-2.4727 2.0156-4.5 4.5-4.5 2.4961-0.058594 4.5234 2.0039 4.5234 4.4883l0.44531 286.03c0.011719 5.0508 2.0039 9.8281 5.6406 13.43 3.625 3.6133 8.4258 5.5312 13.441 5.5664l225.27-0.34766c10.5-0.023438 19.008-8.5781 19.008-19.055l-0.45703-286.04c-0.011719-2.4727 1.9922-4.5 4.5117-4.5 0.1875-0.015624 0.40234 0.007813 0.62109 0.058594z"/>
  <path d="m645.56 429.74c1.8477 0.27734 2.7344-2.7852 3.1094-0.86328 0.49219 2.4258-1.1055 4.7773-3.5273 5.3047-0.21484 0.035156-2.5078 0.57422-5.1367 2.4609-3.1562 2.2422-6.793 6.3945-7.957 13.934-3.1094 19.906-10.691 30.023-43.57 30.07l-115.89 0.16797c-32.914 0.046875-40.488-10.02-43.645-29.93-1.1875-7.5234-4.8359-11.676-8.0039-13.906-2.6641-1.8828-4.9688-2.4258-5.1836-2.4727-2.3867-0.49219-3.9844-2.8789-3.4922-5.2695 0.49219-2.4492 2.6875 0.17969 5.293 0.875 0.50391 0.10938 9.6367-2.4102 15.66 6.8281 2.0898 3.2031 3.793 7.2969 4.6328 12.516 2.3281 14.723 4.9336 22.367 34.703 22.355l115.92-0.19141c29.797-0.035156 32.398-7.7266 34.656-22.453 0.81641-5.207 2.5078-9.3008 4.5859-12.516 5.9766-9.3008 15.84-6.7812 16.355-6.8633 0.50781-0.09375 1-0.09375 1.4922-0.046874z"/>
  <path d="m655.43 60.516h0.035156c21.145 3.0117 21.035 17.398 21.035 18l0.058594 41.641c0 1.1875-0.45703 2.3281-1.2969 3.1797-0.86328 0.83984-1.9922 1.3086-3.1797 1.3086l-284.24 0.46875c-1.1523 0.035157-2.3281-0.46875-3.1797-1.2969-0.83984-0.85156-1.332-1.9805-1.332-3.1797l-0.046875-41.75c-0.023438-0.46875-0.023438-5.7617 4.7266-10.68 5.0391-5.1719 13.309-7.8359 24.574-7.8359l122.88-0.19141c0.046874-0.011719 0.097656-0.011719 0.15625-0.011719l111.51-0.16797c2.9766-0.011719 5.7578 0.19141 8.3047 0.51562zm12.141 55.164-0.058593-37.234c-0.023438-0.71875-0.61328-7.1641-13.332-8.9883-2.125-0.3125-4.5-0.45703-7.043-0.45703l-122.92 0.19141c-0.035156 0.011719-0.070312 0.011719-0.13281 0.011719l-111.5 0.17969c-10.859 0.011719-15.863 2.7734-18.109 5.1016-2.0898 2.1602-2.207 4.2734-2.207 4.3086l0.058594 37.32z"/>
  <path d="m569.88 115.88c2.207 0.3125 3.875 2.1836 3.875 4.4414l0.14453 90.852c0.011718 2.2422-0.86328 4.3438-2.4375 5.9414-1.6094 1.6211-3.7188 2.4844-5.9648 2.4844l-70.777 0.10938c-4.6328 0.097656-8.4102-3.7422-8.4492-8.3516l-0.16797-90.863c0-2.4961 2.0273-4.5 4.5-4.5 2.4961-0.023438 4.5234 1.9922 4.5234 4.4766l0.14453 90.238 69.625-0.12109-0.15625-90.238c0-2.4727 2.0273-4.5 4.5117-4.5 0.19922-0.027343 0.4375-0.015624 0.62891 0.03125z"/>
  <path d="m578.15 471.68c2.1836 0.3125 3.8516 2.207 3.8516 4.4648l0.035156 23.844c0 2.1133-1.4414 3.9102-3.4805 4.3789-0.80469 0.19141-20.148 4.5977-42.539 4.6211l-10.895 0.011718c-22.379 0.023438-41.734-4.2969-42.527-4.4883-2.0273-0.44531-3.5039-2.2578-3.5039-4.3555l-0.035156-23.844c0-2.4961 2.0039-4.5234 4.5-4.5234 2.5312-0.035157 4.4883 2.0039 4.4883 4.5117l0.035156 20.16c6.4805 1.2109 21.109 3.5508 37.031 3.5508l10.906-0.023437c15.949-0.011719 30.551-2.4258 37.008-3.6602l-0.011719-20.172c-0.011719-2.4844 1.9922-4.5 4.4766-4.5 0.23828 0 0.43359 0 0.66016 0.023438z"/>
  <path d="m493.25 497.45c2.1836 0.30078 3.8398 2.1836 3.8398 4.4531l0.046874 17.617c0.011719 2.4961-2.0039 4.5-4.5 4.5-2.3867 0.085938-4.4883-1.9922-4.4883-4.4766l-0.046875-17.629c-0.011718-2.4844 2.0156-4.5117 4.5117-4.5117 0.19531-0.003906 0.39844 0.035156 0.63672 0.046875z"/>
  <path d="m569.16 497.32c2.1953 0.3125 3.8516 2.1953 3.8516 4.4531l0.035156 17.641c0.023437 2.4961-2.0039 4.5-4.4766 4.5-2.4492 0.058594-4.5234-1.9922-4.5234-4.4648l-0.035156-17.652c-0.023438-2.4727 2.0039-4.5117 4.4883-4.5117 0.22656-0.011719 0.43359 0.011719 0.66016 0.035156z"/>
  <path d="m576.54 515.02c6.3477 0.89844 11.172 6.4453 11.184 12.863 0 3.4805-1.3555 6.7695-3.8047 9.2266-2.4609 2.4609-5.7461 3.8281-9.2266 3.8281l-88.152 0.12109c-7.2461 0.011718-13.02-5.9531-13.031-12.996-0.011718-7.1406 5.8086-13.008 12.973-13.031l88.176-0.13281c0.64844 0.011719 1.2734 0.050781 1.8828 0.12109zm-90.586 17.004 88.738-0.097656c1.0781-0.011719 2.0742-0.42188 2.8555-1.1758 0.74219-0.75781 1.1641-1.7656 1.1641-2.8555 0-2.1719-1.7539-4.0195-4.0195-3.9961l-88.164 0.12109c-2.2188 0-4.0312 1.8242-4.0195 4.0195 0.011719 1.9805 1.4883 3.707 3.4453 3.9844z"/>
  <path d="m639.34 539.91c2.207 0.28906 3.8633 2.1484 3.8633 4.4141l0.058593 28.391c0.011719 1.2227-0.45703 2.3516-1.2969 3.2148-0.85156 0.82812-1.9922 1.3086-3.2031 1.3086l-24.516 0.058593c-9.7812 0-14.641 2.2422-14.688 2.2695-11.676 7.3555-28.32 5.6523-29.016 5.5781l-82.246 0.15625c-1.1992 0.023437-2.3281-0.44531-3.1797-1.3086-0.86328-0.81641-1.3203-1.9805-1.3203-3.1797l-0.058594-44.074c-0.035156-2.4844 1.9922-4.4883 4.4766-4.4883l82.754-0.15625h-0.023438c-0.097656-0.011718 5.9141-0.63672 13.234 0.42188 6.1328 0.86328 11.41 2.6523 15.695 5.3047 0.12109 0.011719 2.4258 0.9375 6.6016 1.5234 2.3984 0.35938 5.0039 0.51562 7.7539 0.51562l24.516-0.023437c0.1875 0.003906 0.41406 0.015625 0.59375 0.074218zm-34.141 8.3789c-6.1328-0.86328-9.3359-2.4102-9.6836-2.5781-3.5742-2.2188-7.6914-3.5898-12.648-4.2617-6.168-0.89844-11.352-0.35938-11.41-0.35938l-78.719 0.16797 0.046875 35.039 78.254-0.12109c0.625 0.023437 14.762 1.4297 24.168-4.4531 1.0078-0.53906 7.0938-3.4219 19.055-3.4453l20.004-0.035156-0.035157-19.379-19.992 0.023437c-3.1836 0.011719-6.207-0.19141-9.0391-0.59766z"/>
  <path d="m652.93 519.6c0.97266 0.12109 1.8594 0.57422 2.5547 1.2734 0.83984 0.83984 1.2969 1.9805 1.2969 3.1562l0.12109 67.043c0.023438 2.5078-1.9922 4.5234-4.4766 4.5234l-11.258 0.023438c-2.0742 0.058594-3.7812-1.3203-4.332-3.2656-0.10938-0.38281-2.5664-9.3945-2.6289-33.805-0.023438-24.312 2.3633-35.027 2.4609-35.496 0.45703-2.0273 2.2812-3.4805 4.3906-3.5039h11.242c0.20703 0 0.41016 0 0.62891 0.050781zm-5.0312 67.008-0.10938-58.031-2.9141-0.003906c-0.67188 4.7539-1.6797 14.484-1.6445 29.988 0.035156 14.941 1.0078 23.746 1.6562 28.043z"/>
  <path d="m675.49 543.73c2.1719 0.28906 3.8398 2.1484 3.8516 4.4297 0 2.4961-2.0039 4.5-4.5 4.5l-22.512 0.058594c-2.4102 0.058594-4.4883-2.0039-4.4883-4.5-0.011719-2.4961 2.0039-4.5 4.4883-4.5l22.5-0.058594c0.22656 0.011719 0.42188 0.035156 0.66016 0.070313z"/>
  <path d="m675.8 559.73c2.1953 0.30078 3.8516 2.1836 3.8516 4.4414 0.011719 2.4844-2.0039 4.5-4.4883 4.5l-22.801 0.058593c-2.4258 0.070313-4.4766-1.9922-4.4766-4.5-0.035156-2.4609 1.9922-4.5 4.4766-4.5l22.801-0.035156c0.20312-0.023437 0.42188 0.011719 0.63672 0.035156z"/>
  <path d="m550.38 576.48c2.1953 0.28906 3.8633 2.1719 3.8633 4.4531l0.34766 229.97c0.25391 2.1602-0.3125 5.4102-2.6992 8.2578-3.7422 4.4883-10.754 6.7695-20.832 6.7812-10.066 0.035156-17.074-2.2422-20.797-6.707-2.4102-2.8086-3.0117-6.0977-2.7461-8.2578l-0.37109-229.98c0-2.4961 2.0039-4.5117 4.5-4.5117 2.4609-0.035156 4.4883 2.0039 4.4883 4.5l0.35938 230.27c0.011718 0.26562-0.011719 0.52734-0.035157 0.79297v-0.011719c0.011719 0 0.046875 0.74219 0.83984 1.5703 0.96094 0.99609 4.1523 3.3359 13.754 3.3359 9.6133-0.046875 12.84-2.3633 13.777-3.3594 0.82812-0.91016 0.82812-1.6562 0.82812-1.7891l-0.40625-230.82c0-2.5078 2.0039-4.5234 4.5-4.5234 0.21094-0.042969 0.4375-0.003907 0.62891 0.03125z"/>
  <path d="m557.81 547.33c2.1719 0.3125 3.8633 2.1953 3.8633 4.4531 0 2.4961-2.0273 4.5117-4.5117 4.5l-54.938 0.097656c-2.5078 0-4.5117-2.0273-4.4766-4.5-0.035156-2.4961 1.9922-4.5234 4.4766-4.5234l54.938-0.070313c0.21484 0.007813 0.43359 0.03125 0.64844 0.042969z"/>
  <path d="m558.74 559.36c2.1836 0.30078 3.8516 2.1836 3.8516 4.4141 0 2.4961-2.0039 4.5234-4.4766 4.5352l-54.938 0.085937c-2.4609 0.046875-4.5117-2.0039-4.5117-4.5117 0-2.4727 1.9922-4.4766 4.5117-4.4766l54.898-0.12109c0.24609 0.015625 0.44922 0.039062 0.66406 0.074219z"/>
  <path d="m569.28 576.41c0.63672 0.12109 1.2461 0.33594 1.7891 0.70703 4.2852 2.7461 105.19 68.051 115.02 133.32 4.8477 32.051-1.2734 79.453-32.953 116.28-27.91 32.508-70.105 49.738-121.99 49.801-51.852 0.097656-94.094-16.969-122.12-49.402-31.766-36.73-38.062-84.098-33.336-116.2 9.625-65.27 110.29-130.96 114.61-133.7 2.0742-1.3203 4.8711-0.74219 6.2148 1.3438 1.3555 2.0742 0.74219 4.8711-1.3438 6.2148-1.0078 0.64844-101.53 66.227-110.57 127.45-4.4023 30.121 1.4648 74.578 31.262 109.02 26.27 30.336 66.121 46.344 115.27 46.285 49.199-0.097656 89.016-16.223 115.2-46.703 29.676-34.523 35.398-78.984 30.875-109.07-9.2266-61.234-109.97-126.46-110.99-127.09-2.0742-1.3438-2.7227-4.1289-1.3555-6.2383 0.96875-1.5039 2.7461-2.2383 4.4141-2.0234z"/>
  <path d="m747.77 510.68c15.574 2.207 25.98 7.2227 26.426 7.4297 11.473 6.4688 24.203 13.453 26.027 14.137 0.57422 0.023438 1.5859 0.10938 2.8203 0.19141 2.1602 0.14453 4.8711 0.33594 7.5703 0.73047 4.7656 0.68359 11.449 2.1367 13.992 7.0195 3.3828 6.4688-1.8594 16.609-4.9062 21.562 15.18 46.066-5.1484 71.242-8.6758 75.121-9.625 17.617-8.8672 36.695-8.8555 36.863l0.046875 23.797c0 2.293-1.7148 4.2227-3.9609 4.4766-0.49219 0.070312-12.023 1.4023-25.957 1.4297-13.883 0.046875-30.348-1.4883-31.066-1.5586-2.5664-0.12109-4.0938-2.1367-4.0781-4.4648l-0.023438-14.09c0-7.0195 2.1953-14.16 6.5273-21.215 1.5703-2.543-0.44531-11.531-2.1133-13.32-2.8555-2.4102-6.7812-9.2891-6.0117-16.273 0.42188-3.7812 2.3984-9.0234 9.3594-12.66 3.3359-1.7539 6.7188-2.3633 9.9492-1.9219 6.8164 0.97266 11.219 6.5273 13.344 10.066 5.5664-0.67188 17.867-3.8516 22.586-18.758 3.2031-10.078-0.035156-26.953-7.8477-41.016-7.5977-13.656-18.254-22.812-29.93-25.824-19.633-4.8828-35.102 5.3633-42.613 11.988 4.7383 2.8906 7.8711 8.1133 7.8711 13.934 0.011719 4.3789-1.7773 8.6875-4.9219 11.762-3.1211 3.0469-7.1758 4.6797-11.473 4.5859-29.27-0.70703-30.371-21.254-30.973-29.641-0.085937-0.89844-0.15625-1.7383-0.22656-2.4102-0.38281-3.2656-1.4531-26.352 5.5078-33.191 2.2422-2.207 5.2695-2.8906 8.1719-1.7891 1.2461 0.49219 2.5547 0.80469 3.793 0.99609 3.8867 0.53906 6.5039-0.48047 6.5273-0.49219 16.141-7.6445 34.066-10.176 53.113-7.4648zm22.234 15.383c-0.023437-0.011718-9.5625-4.4766-23.508-6.4805-17.258-2.4727-33.469-0.19141-48.156 6.7422-0.57422 0.25391-5.0273 2.1133-11.473 1.1875-1.5977-0.21484-3.2266-0.61328-4.8008-1.1406-2.1836 3.5391-3.3711 17.605-2.4492 25.117 0.12109 0.82812 0.17969 1.7773 0.23828 2.8789 0.80469 10.883 3.2891 20.855 22.246 21.254 1.8242 0.035156 3.6016-0.67188 4.9453-1.9688 1.4023-1.4023 2.2188-3.3477 2.207-5.3281 0-3.9727-3.2266-7.2852-7.3086-7.3086-1.7031-0.011719-3.2891-0.98438-4.0547-2.5547-0.74219-1.5586-0.53906-3.3945 0.55078-4.7539 0.82812-1.043 20.734-25.453 51.227-21.133 1.8125 0.28906 3.6836 0.625 5.5664 1.1289 14.148 3.5898 26.762 14.293 35.594 30.133 9.0586 16.32 12.527 35.664 8.5664 48.156-7.7539 24.492-31.141 25.188-33.77 25.188-1.8125 0-3.457-1.0781-4.1523-2.7461-0.81641-1.9062-3.8398-7.0195-7.8359-7.5859-1.4023-0.17969-2.8555 0.13281-4.5352 0.99609-2.8086 1.4531-4.3086 3.3125-4.5703 5.6758-0.46875 3.7422 2.0742 7.7266 2.9414 8.4844 4.3906 3.7422 8.1133 17.965 3.8867 24.84-3.457 5.6055-5.1953 11.16-5.1953 16.488l0.023438 9.9258c5.7617 0.46875 16.715 1.2227 26.113 1.1992 8.6406-0.011719 16.441-0.57422 20.914-0.97266l-0.023438-19.547c-0.046875-0.66016-0.86328-21.961 10.246-41.902 0.21484-0.35937 0.45703-0.68359 0.73047-0.96094 0.88672-0.92578 21.996-23.426 6.3242-68.473-0.45703-1.332-0.25391-2.8203 0.51562-3.9961 4.0547-6 6.3828-12.707 5.6406-14.207 0-0.023438-1.0195-1.4297-7.2852-2.3164-2.4492-0.34766-4.9336-0.51563-6.9258-0.64844-1.5-0.10938-2.7461-0.20312-3.5898-0.32422-0.22656-0.023437-1.0938-0.20312-1.2969-0.26562-2.6484-0.8125-18.367-9.6094-27.547-14.781z"/>
  <path d="m798.2 692.84c1.9336 0.27734 3.5273 1.8125 3.8164 3.8516 0.33594 2.5781 8.7227 63.973 10.176 88.152 1.0938 19.414 0.49219 37.273 0.20313 43.777 1.9062 1.5234 4.2109 4.0938 4.8477 7.8125 0.73047 4.1055-0.70703 8.2695-4.2461 12.469l0.52734 8.2422c1.7266 1.7031 4.0312 4.7539 4.3203 8.8555 0.14453 2.4727-0.43359 6.1328-3.875 10.02 0.32422 8.0273 1.2227 38.027-2.7617 58.609-4.3672 22.332-4.1523 39.648 0.74219 61.715 5.1484 23.23 3.3477 36.012 3.2891 36.562-0.17969 4.2461-5.3516 9.0703-42.145 9.1445l-5.9531 0.011718c-36.781 0.046875-41.965-4.7539-42.168-9.4922-0.023437-0.058594-1.8711-12.84 3.2148-36.098 4.7891-22.066 4.9688-39.371 0.55078-61.715-4.043-20.578-3.2656-50.566-2.9766-58.598-3.4453-3.875-4.043-7.5352-3.875-10.031 0.26562-4.1055 2.5938-7.1406 4.2734-8.8438l0.49219-8.2578c-3.5508-4.1641-4.9688-8.3398-4.2734-12.434 0.67188-3.7305 2.9648-6.2773 4.8594-7.8477-0.32422-6.4922-0.99609-24.359 0.058593-43.754 1.3203-24.203 9.5273-85.609 9.875-88.211 0.32422-2.4609 2.6055-4.1992 5.0625-3.8516h0.046875c2.4492 0.33594 4.1406 2.5938 3.8164 5.0508-0.085937 0.625-8.5312 63.66-9.793 87.492-1.3203 23.723 0.046875 45.07 0.058594 45.277 0.13281 1.8242-0.86328 3.5391-2.5195 4.3438-0.5625 0.30078-2.3281 1.5234-2.6055 3.0859-0.22656 1.5117 0.89844 3.6719 3.2656 6.0859 0.86328 0.89844 1.332 2.1602 1.2461 3.4062l-0.74219 12.012c-0.085938 1.3789-0.76953 2.6406-1.8711 3.4062-0.55078 0.39453-2.2305 2.0039-2.2812 3.6484-0.085937 1.5859 1.332 3.2539 2.5312 4.3672 0.99609 0.89844 1.5234 2.207 1.4414 3.5273-0.011719 0.35938-1.6914 36.059 2.7344 58.355 4.6914 23.676 4.5234 42-0.60156 65.387-3.6953 16.895-3.457 27.805-3.1914 31.727 2.3281 0.89844 10.141 2.9531 33.348 2.9141l5.9297-0.011719c23.219-0.023437 31.043-2.125 33.371-3.0352 0.25391-4.2969 0.34766-15.109-3.3008-31.715-5.1953-23.375-5.3984-41.688-0.79297-65.363 4.3203-22.367 2.5781-58.031 2.543-58.391-0.085938-1.3203 0.44531-2.6289 1.4141-3.5391 1.2227-1.1055 2.6172-2.7617 2.543-4.3672-0.10938-1.6562-1.7539-3.2148-2.3398-3.6602-1.0664-0.78125-1.7656-2.0273-1.8594-3.3594l-0.75781-12.023c-0.097656-1.2461 0.37109-2.4961 1.2461-3.3828 2.3633-2.4492 3.5273-4.6211 3.2539-6.1328-0.30078-1.8359-2.6055-3.0586-2.6172-3.0977-1.5977-0.80469-2.6055-2.5195-2.5078-4.2852 0.035156-0.22656 1.2969-21.602-0.058594-45.301-1.4141-23.809-10.031-86.809-10.129-87.469-0.3125-2.4609 1.3906-4.7266 3.875-5.0508 0.41797-0.050782 0.83984-0.050782 1.2695 0.007812z"/>
  <path d="m808.4 826.49c1.8359 0.25391 3.4062 1.668 3.7812 3.6016 0.49219 2.4258-1.1055 4.8008-3.5625 5.2695-0.86328 0.17969-21.793 4.2461-38.797 4.2617-17.027 0.035156-37.906-3.9609-38.785-4.1406-2.4609-0.45703-4.0664-2.8203-3.5625-5.2695 0.45703-2.4375 2.6055-4.332 5.2578-3.5508 0.20312 0.023438 20.953 3.9844 37.078 3.9609 16.105-0.035156 36.875-4.043 37.078-4.0938 0.53125-0.074219 1.0352-0.11328 1.5117-0.039063z"/>
  <path d="m808.43 842.9c1.8477 0.25391 3.3828 1.6562 3.7812 3.5898 0.48047 2.4258-1.1172 4.7891-3.5508 5.2812-0.89844 0.16797-21.805 4.2344-38.785 4.2617-17.051 0.023438-37.957-4.0078-38.809-4.1406-2.4609-0.49219-4.043-2.8438-3.5898-5.293 0.48047-2.4102 2.4727-4.1289 5.2695-3.5625 0.22656 0.046876 20.941 4.0195 37.105 3.9961 16.094-0.035156 36.863-4.0781 37.043-4.0938 0.55078-0.10938 1.043-0.10938 1.5352-0.039062z"/>
  <path d="m808.45 854.95c1.8359 0.27734 3.4062 1.6797 3.7578 3.625 0.48047 2.4258-1.1055 4.7773-3.5273 5.2695-0.92578 0.17969-21.805 4.2227-38.797 4.2461-17.062 0.023438-37.945-3.9844-38.785-4.1406-2.4609-0.48047-4.0547-2.832-3.5898-5.2578 0.45703-2.4492 2.8672-4.2734 5.2578-3.5742 0.20312 0.035156 20.965 4.0078 37.105 3.9727 16.129-0.035156 36.863-4.0547 37.066-4.1055 0.53906-0.074219 1.0078-0.097656 1.5117-0.035156z"/>
  <path d="m808.49 870.41c1.8125 0.27734 3.3945 1.6797 3.7578 3.6016 0.48047 2.4492-1.1055 4.8125-3.5625 5.2812-0.86328 0.19141-21.781 4.2344-38.773 4.2617-17.027 0.035157-37.934-3.9609-38.809-4.1406-2.4375-0.45703-4.0547-2.832-3.5742-5.2695 0.45703-2.4258 2.8672-4.043 5.2695-3.5742 0.20312 0.035156 20.953 4.0078 37.094 3.9727 16.152-0.023437 36.887-4.0547 37.078-4.0938 0.52344-0.097656 1.0039-0.097656 1.5195-0.039062z"/>
  <path d="m809.35 1029.5c2.1953 0.30078 3.8633 2.1836 3.8398 4.4414l0.14453 79.645c0 2.0156-1.2617 3.7578-3.1914 4.3203-2.8438 0.86328-69.852 20.891-110.24 20.953-7.7148 0.011719-19.754 0.19141-34.535 0.38281-64.598 0.94922-172.97 2.2305-212.65-4.1289-2.1953-0.35938-3.7812-2.2578-3.7812-4.4531v-7.7266c0-0.71875 0.085937-7.9805 6.4453-14.016 6.0117-5.6406 15.277-8.0273 27.625-7.0938 29.629 2.2578 210.72-2.8906 233.66-12.266-7.1992-6.3711-50.426-13.152-76.367-12.816-2.4727 0.10937-4.5352-1.957-4.5469-4.4414-0.058594-2.5078 1.9453-4.5117 4.4141-4.5586 13.465-0.17969 70.559 3.6133 83.27 16.141 2.5938 2.5664 3.1562 5.1367 3.1445 6.8398 0.011719 1.1758-0.37109 2.9141-2.0898 4.5234-14.844 13.777-217.59 17.426-242.16 15.574-9.5742-0.74219-16.766 0.86328-20.785 4.668-3.5156 3.3242-3.6133 7.3555-3.6133 7.4023l0.011718 3.8867c42.168 5.8086 149.04 4.2969 207.3 3.457 14.785-0.21484 26.867-0.38281 34.656-0.38281 34.188-0.046874 90.457-15.625 104.41-19.645l-0.12109-76.246c0-2.5078 2.0273-4.5 4.4883-4.5117 0.24219 0.027343 0.45703 0.027343 0.67187 0.050781z"/>
  <path d="m732.19 1029.6c2.207 0.3125 3.8398 2.2188 3.8398 4.4648l0.10938 50.629c0 2.4961-2.0273 4.5-4.5 4.5-2.5664 0.046875-4.5-1.9922-4.5-4.4883l-0.097656-50.641c0-2.4727 2.0273-4.5117 4.5-4.5117 0.20312-0.003907 0.44531 0.019531 0.64844 0.046875z"/>
  <path d="m726.73 1066.1c3.3359 0.48047 5.6406 0.91016 6.5742 1.2852 2.293 0.96094 3.4062 3.5742 2.4844 5.8672-0.9375 2.3047-3.5391 3.457-5.8438 2.4727-4.5977-1.4883-49.895-5.3398-90.035-8.2578-2.5078-0.035156-4.3438-2.3398-4.1875-4.8125 0.17969-2.4844 2.3516-4.3438 4.8242-4.1641 26.844 1.9453 69.445 5.2227 86.184 7.6094z"/>
  <path d="m637.45 1035.3c0.058594 0.011718 0.15625 0.011718 0.21484 0.046874 1.6562 0.32422 7.0312 2.2695 7.043 13.586l0.097656 53.461-8.9883 0.011718-0.097656-53.461c-0.011718-1.2344-0.085937-2.1836-0.20312-2.9297-9.0586 4.9219-34.129 13.621-98.102 13.715-63.109 0.12109-87.742-8.3047-96.77-13.297-0.12109 0.73047-0.20313 1.668-0.17969 2.8203 0.011719 7.3789 0.058594 41.867 0.058594 51.168 4.9688 3.4453 12.852 7.8125 17.473 7.7539 2.5547 0.035156 4.5234 2.0273 4.5234 4.5 0 2.4961-2.0273 4.5-4.5117 4.5-9.9961-0.023438-23.207-9.7188-24.684-10.871-1.1289-0.83984-1.7891-2.1602-1.7891-3.5742 0 0-0.070312-44.941-0.085937-53.438-0.035156-11.293 5.3398-13.309 6.9727-13.609 1.5859-0.35938 3.2539 0.19141 4.2852 1.4414 0.058593 0 15.168 13.738 94.68 13.609 79.945-0.12109 96.086-14.051 96.254-14.195 1.0117-0.90234 2.4531-1.418 3.8086-1.2383z"/>
  <path d="m472.61 1008.4c1.6211 0.25391 3.0352 1.3086 3.625 2.9531 0.82812 2.3398-0.37109 4.9219-2.7227 5.7461-29.258 10.379-29.676 22.754-29.676 22.871-0.011719 2.4258-1.9336 4.5-4.3438 4.5703-2.375 0.12109-4.4766-1.6914-4.6445-4.1055-0.13281-1.9062-0.25391-19.078 35.652-31.836 0.70312-0.23438 1.4102-0.30469 2.1094-0.19922z"/>
  <path d="m605.38 1010.9c0.17969 0 0.3125 0.035156 0.48047 0.070312 35.809 8.8906 35.438 28.176 35.41 29.004-0.10938 2.4609-2.1836 4.3789-4.6914 4.3086-2.2578-0.13281-4.3555-2.1367-4.2969-4.5977-0.035156-0.45703-0.89844-13.094-28.621-19.98-2.4258-0.60156-3.875-3.0352-3.2773-5.4375 0.58203-2.25 2.7422-3.7031 4.9961-3.3672z"/>
  <path d="m623.07 896.48c23.195 3.3125 27.852 7.1758 27.852 12.359 0 1.1641-0.33594 2.9414-2.0273 4.6562-9.7188 9.7422-72.301 12.469-107.79 12.504-31.766 0.046875-61.656-1.5703-81.984-4.4648-23.23-3.3008-27.887-7.1758-27.898-12.348-0.011719-15.336 76.812-17.125 109.82-17.184 31.801-0.058593 61.691 1.5977 82.02 4.4766zm15.77 12.406c-2.9141-0.9375-8.0898-2.2422-17.027-3.4922-19.945-2.8438-49.355-4.4414-80.746-4.3789-51.254 0.097657-86.27 4.3203-97.754 8.1133 2.9648 0.9375 8.125 2.2305 17.102 3.5039 19.906 2.8086 49.32 4.4141 80.676 4.3555 51.25-0.070313 86.301-4.3203 97.75-8.1016z"/>
  <path d="m640.43 908.82c2.4492 0.34766 4.1641 2.6172 3.8281 5.0742l-10.344 74.688c0.22656 2.3164 0.13281 8.7461-5.6523 15.73-12.023 14.531-40.141 21.91-83.578 21.996l-6.8164 0.011718c-43.465 0.058594-71.594-7.2344-83.652-21.73-5.7969-6.9375-5.9141-13.367-5.7344-15.707l-10.535-74.676c-0.34766-2.4492 1.3555-4.7266 3.8164-5.0742 2.4609-0.32422 4.7383 1.3555 5.1016 3.8398l10.633 75.227c0.085937 0.46875 0.058594 0.94922-0.035156 1.4297 0 0.097656-0.51563 4.4023 3.9844 9.5742 5.9531 6.793 23.762 18.18 76.402 18.098h6.8164c52.609-0.085937 70.402-11.531 76.332-18.348 4.5-5.1953 3.9609-9.5039 3.9102-9.6953-0.035156-0.39453-0.070312-0.92578-0.011719-1.3555l10.43-75.238c0.33594-2.4961 2.6055-4.2109 5.0625-3.8398z"/>
  <path d="m536.2 957.96c2.1133 0.30078 4.0312 1.2461 5.5781 2.8203 3.9492 4.0195 3.9844 10.586 3.9609 11.855l0.085937 49.141c0.035157 2.4844-1.9922 4.5117-4.5117 4.5117-2.4844 0.058594-4.4883-2.0039-4.4883-4.5l-0.070312-49.246c0.023438-1.7266-0.46875-4.5117-1.4141-5.4609-0.035157 0-0.68359-0.21484-0.73047-0.23828l-1.3203 0.23828c-0.98438 1.0078-1.4141 3.9844-1.3906 5.375l0.097657 49.344c0 2.5078-1.9922 4.5234-4.5117 4.5234-2.4492 0.070312-4.5117-2.0039-4.5117-4.5l-0.058594-49.246c-0.023437-1.1992 0-7.7656 3.9375-11.797 1.8828-1.9336 4.3555-2.9414 7.1172-2.9414 0.011718 0 0.74219 0.023437 0.76953 0.023437 0.47656 0 0.96875 0.035157 1.4609 0.097657z"/>
  <path d="m582.71 958.03c2.125 0.30078 4.043 1.2617 5.5664 2.832 3.9609 4.0078 4.0312 10.57 4.0195 11.855l-4.2617 46.801c-0.23828 2.4844-2.4258 4.2852-4.8945 4.0547-2.3984-0.16797-4.3086-2.3867-4.0781-4.8711l4.2461-46.477c-0.035157-1.2969-0.49219-4.1055-1.4648-5.0625-0.011719 0-0.68359-0.22656-0.70703-0.25391l-1.332 0.25391c-0.92578 0.96094-1.3906 3.7578-1.3789 5.3867l-4.4766 48.648c-0.23828 2.4727-2.4102 4.2852-4.8828 4.0547-2.3398-0.035156-4.3086-2.4102-4.0781-4.8945l4.4766-48.121c-0.070313-0.76953-0.023438-7.3086 3.8984-11.352 1.8828-1.9336 4.3672-2.9531 7.1172-2.9531 0.035157-0.011719 0.74219 0 0.74219 0 0.50391 0.003906 0.99609 0.039062 1.4883 0.097656z"/>
  <path d="m489.94 956.18c2.375 0.3125 4.2227 1.2852 5.7109 2.7852 3.9258 4.0312 3.9844 10.559 3.9609 11.844l4.5977 47.605c0.23828 2.4961-1.5586 4.7031-4.043 4.9219-2.4375 0.21484-4.6562-1.5859-4.9219-4.043l-4.5977-48.133c-0.023437-2.1484-0.46875-4.9453-1.4414-5.8906l-0.68359-0.23828c-1.1406 0-1.2461 0.12109-1.3672 0.25391-0.96094 0.94922-1.4141 3.7422-1.3906 5.375l4.2461 45.445c0.25391 2.4844-1.5977 4.6797-4.0547 4.9062-2.4492 0.19141-4.6797-1.5977-4.8945-4.0664l-4.2969-45.781c-0.023438-1.5586 0.023437-8.125 3.9492-12.168 1.8711-1.9453 4.332-2.9648 7.1172-2.9883 0.73828 0.003906 1.4258 0.0625 2.1094 0.17188z"/>
  <path d="m617.82 953.58c1.6328 0.23828 3.1094 1.0938 4.1758 2.4102 2.7969 3.5391 1.9062 10.031 1.3789 12.648l-6.4453 42.73c-0.37109 2.4492-2.6289 4.1406-5.0898 3.7812h-0.023438c-1.5234-0.23828-2.7227-1.1758-3.3477-2.4258l-0.25391 1.7266c-0.40625 2.4727-2.7617 4.3555-5.1484 3.7695-2.4727-0.37109-4.1758-2.6992-3.7578-5.1484l7.1992-46.297c0.69531-3.3594 3.3945-13.559 10.609-13.262 0.22266-0.003907 0.46094 0.019531 0.70312 0.066406z"/>
  <path d="m456.83 950.71c5.9766 0.82812 8.4375 9.1914 9.2539 12.926l7.3672 45.109c0.37109 2.4375-1.2734 4.7539-3.7305 5.1602-2.4844 0.38281-4.7656-1.2734-5.1836-3.7305l-0.74219-4.6328c-0.57422 1.4023-1.8711 2.4727-3.4688 2.7227-2.4844 0.34766-4.7656-1.3086-5.1484-3.7578l-5.9883-38.902c-0.48047-2.4258-1.4023-8.8906 1.4023-12.457 1.2109-1.5352 2.9414-2.3984 4.8828-2.4844 0.49219-0.023437 0.92188-0.011718 1.3555 0.046876z"/>
 </g>
</svg>
