<?xml version="1.0" encoding="UTF-8"?>
<svg width="1200pt" height="1200pt" version="1.1" viewBox="0 0 1200 1200" xmlns="http://www.w3.org/2000/svg">
 <g>
  <path d="m975.68 196.09c1.2617 1.0195 2.1602 2.5078 2.5078 4.2227 0.28906 1.8008 7.2969 44.594-48.434 120.55 0.023438 0.023437-33.227 55.344-42.781 83.125-8.1602 23.797-31.043 60.395-42.07 78.023-2.7461 4.3438-4.7148 7.5703-5.5195 9-0.64844 1.1641-1.6211 2.7969-2.9023 5.0156-7.2461 12.266-24.18 41.16-30.266 63.59-7.7656 28.344-45.996 78.086-47.629 80.242 0 0-23.102 37.633-28.535 55.465-5.8203 19.176-18.898 45.672-28.789 61.906-5.3281 8.6992-6.9375 14.699-5.2422 20.039 2.3164 7.2852 10.992 14.27 25.848 20.785 3.7188 1.6211 5.375 5.8789 3.7422 9.5391-1.5586 3.6367-5.8672 5.3398-9.5273 3.7188-19.141-8.3281-30.215-18.047-33.863-29.734-3.8633-12.312 1.5586-23.52 6.707-31.945 9.2148-15.059 21.887-40.668 27.312-58.547 5.9297-19.668 29.484-57.852 30.492-59.508 0.79297-1.1172 38.449-50.172 45.469-75.719 6.625-24.324 24.277-54.422 31.801-67.188 1.1992-2.0625 2.125-3.6367 2.6875-4.6914 0.88672-1.5 3.0469-4.9805 5.9766-9.6719 10.703-17.148 33.023-52.812 40.598-75.023 10.066-29.242 43.105-84.133 44.473-86.461 40.199-54.828 45.852-90.562 46.344-103.97l-889.55-0.26172c0.45703 13.367 6 48.996 45.91 103.49 1.7539 2.8438 34.738 57.77 44.773 87.023 7.6211 22.246 29.977 58.008 40.727 75.18 2.8438 4.6445 4.9453 8.0039 5.832 9.5508 0.5625 1.0547 1.5352 2.6758 2.7617 4.7656 7.4883 12.816 25.043 42.816 31.633 67.078 7.0312 25.598 44.652 74.652 45.035 75.121 1.4297 2.2578 24.926 40.477 30.949 60.145 5.4609 18.035 18.098 43.68 27.254 58.621 5.1484 8.4258 10.535 19.691 6.6602 31.934-3.6484 11.652-14.746 21.312-33.91 29.699-3.6602 1.6094-7.9336-0.085937-9.5039-3.7188-1.6211-3.6719 0.058594-7.9062 3.7305-9.5273 14.891-6.5273 23.594-13.512 25.883-20.844 1.668-5.2695 0.13281-11.258-5.207-19.922-9.625-15.77-22.98-42.77-28.766-62.027-5.4961-17.867-28.727-55.754-29.004-56.113-1.1992-1.4531-39.324-51.238-47.062-79.523-6.1211-22.402-22.98-51.266-30.227-63.613-1.2969-2.207-2.2695-3.9609-2.9531-5.0273-0.75781-1.4648-2.7109-4.6211-5.4258-8.9023-11.016-17.641-33.961-54.336-42.121-78.156-9.5391-27.863-42.781-83.137-43.105-83.723-55.297-75.457-48.277-118.22-47.965-120.02 0.625-3.4453 3.6367-5.9414 7.1289-5.9531l903.45 0.25391c1.7891-0.007812 3.3828 0.64063 4.6797 1.7109z"/>
  <path d="m916.45 832.97c9.7578 8.125 15.445 17.258 15.445 27.492 0 61.848-213.77 95.148-414.85 95.016-201.07-0.046874-414.82-33.348-414.81-95.246 0.011719-58.715 188.22-81.637 245.91-87.266 3.9492-0.40625 7.4883 2.5078 7.8711 6.4922 0.39453 3.9727-2.543 7.4766-6.4922 7.8828-159.97 15.59-232.85 48.719-232.84 72.863 0.046876 38.184 164.44 80.746 400.33 80.832 235.95 0.097656 400.39-42.422 400.41-80.605 0-23.832-71.508-56.641-228.59-72.637-3.9727-0.38281-6.8398-3.9492-6.4922-7.8945 0.39453-3.9375 3.9609-6.8633 7.9336-6.4922 46.711 4.7578 180.51 21.402 226.16 59.562z"/>
  <path d="m755.02 926.99c1.6328 1.2969 2.6055 3.3242 2.5547 5.5312l0.046876 20.375c-0.046876 42.023-157.68 53.051-241 52.992-83.352-0.070313-241.01-11.113-240.97-53.125l0.011718-20.484c-0.011718-3.9727 3.2656-7.1992 7.2461-7.2227 3.9961 0 7.2461 3.2539 7.2227 7.2617l-0.023437 20.438c0.035156 13.535 77.902 38.594 226.5 38.641 148.7 0.10938 226.51-25.055 226.51-38.531l0.007812-20.344c0-3.9727 3.2539-7.2227 7.2461-7.2227 1.7891 0 3.4219 0.63672 4.6445 1.6914z"/>
  <path d="m1101.9 278.48c8.8789 7.4297 16.441 16.512 21.863 27.562 39.348 80.688 6.3242 157.6-90.648 211.01-104.51 57.613-255.41 94.523-256.98 94.859-3.8164 0.96094-7.7383-1.4531-8.6992-5.3281-0.96094-3.875 1.4141-7.8125 5.3398-8.7109 1.4766-0.39453 150.55-36.828 253.39-93.527 90.59-49.906 120.61-118.04 84.551-191.96-30.434-62.449-148.55-51.469-149.7-51.371-4.0078 0.39453-7.5352-2.4961-7.9453-6.4922-0.38281-3.9727 2.543-7.5234 6.5156-7.8945 4.4688-0.42188 93.773-8.6875 142.31 31.859z"/>
  <path d="m1072.5 315.35c5.9141 4.9219 10.488 10.488 13.32 16.32 13.945 28.824-0.26562 82.883-48.145 123.46-65.102 55.223-226.99 99.238-233.87 101.05-3.8516 1.0664-7.7891-1.2109-8.8672-5.0742-0.98438-3.8516 1.2461-7.7891 5.1367-8.8906 1.6328-0.42188 165.64-45.023 228.21-98.137 42.023-35.531 55.766-82.766 44.52-106.13-11.734-24.035-70.055-45.551-138.76-25.848-3.8516 1.0938-7.8242-1.1055-8.9297-4.9688-1.1172-3.8398 1.1289-7.8242 4.9219-8.9648 59.16-16.934 115.42-5.3867 142.45 17.184z"/>
 </g>
</svg>
